<?xml version="1.0" encoding="utf-8"?>
<!-- Generator: Adobe Illustrator 27.5.0, SVG Export Plug-In . SVG Version: 6.00 Build 0)  -->
<svg version="1.1" id="Layer_1" xmlns="http://www.w3.org/2000/svg" xmlns:xlink="http://www.w3.org/1999/xlink" x="0px" y="0px"
	 viewBox="0 0 255.144 251.486" style="enable-background:new 0 0 255.144 251.486;" xml:space="preserve">
<g>
	<g>
		<path style="fill:#FFFFFF;" d="M161.919,167.402c3.37-1.554,7.143-3.049,11.298-4.475c0.146,0.684,0.35,1.369,0.612,2.05
			C169.707,165.976,165.662,166.77,161.919,167.402z M159.492,138.72c-5.373,2.557-10.135,4.004-13.85,4.822
			c3.036-5.299,6.51-10.219,10.39-14.71c0.984,0.566,2.025,1.034,3.107,1.396C157.98,134.057,158.783,137.072,159.492,138.72z
			 M39.04,133.13c3.332,3.334,7.379,5.096,11.701,5.096c1.789,0,3.441-0.297,4.893-0.727c1.44,5.895,3.259,16.191,2.146,27.617
			c-1.663,17.037-22.223,36.802-22.427,36.998c-0.22,0.208-0.42,0.438-0.597,0.684c-0.768,1.066-1.585,2.911-1.127,5.64
			c1.193,7.096,11.032,18.24,24.486,27.732c10.863,7.661,19.665,11.545,26.161,11.545c3.58,0,5.765-1.224,6.971-2.252
			c0.754-0.645,1.948-1.879,4.578-4.607c6.454-6.699,19.887-20.639,30.112-27.657c17.9-12.285,33.894-14.863,44.156-14.863
			c0.987,0,1.913,0.024,2.771,0.065c-0.319,0.933-0.553,1.938-0.655,3.011c-0.25,2.622,0.223,6.611,3.902,10.727
			c3.136,3.503,7.191,5.355,11.73,5.355c2.271,0,4.371-0.465,6.13-1.06c1.58,2.046,4.05,3.926,7.768,4.896
			c1.079,0.281,2.18,0.425,3.271,0.425c6.124,0,10.395-4.281,12.492-7.004c3.692-0.785,10.098-3.438,13.818-12.365
			c1.983-4.748,2.256-8.866,1.695-12.188c4.983-1.397,9.088-5.13,11.606-10.706c3.277-7.248,1.317-13.384-1.914-17.751
			c2.983-2.156,5.695-5.575,7.343-10.621c2.472-7.587-0.55-13.485-4.48-17.369c3.733-3.879,6.732-10.259,5.438-19.822
			c-1.468-10.828-8.347-17.103-13.303-20.288c1.862-3.902,3.387-9.715,0.988-16.296c-2.303-6.332-7.8-9.515-12.606-11.113
			c0.456-1.062,0.788-2.213,0.912-3.436c0.286-2.814-0.581-5.481-2.509-7.717c-2.477-2.864-4.946-4.306-7.084-4.981
			c-0.224-2.447-0.804-5.559-2.155-8.909c-2.716-6.738-9.156-15.709-24.41-20.181c-3.247-0.952-6.546-1.434-9.808-1.434
			c-9.958,0-17.839,4.406-22.848,8.287c-2.521-5.339-7.486-11.661-17.149-13.763c-1.673-0.363-3.341-0.548-4.956-0.548
			c-8.165,0-13.644,4.472-16.915,8.475c-2.71-2.284-6.542-4.333-11.223-4.099c-4.209,0.227-7.116,1.887-8.984,3.998
			c-3.62-1.782-8.887-3.715-14.697-3.715c-4.674,0-9.005,1.227-12.872,3.648c-8.3,5.194-11.509,11.775-12.702,16.746
			c-0.665-0.085-1.369-0.134-2.109-0.134c-3.742,0-7.518,1.209-11.227,3.596c-5.306,3.416-7.828,7.332-8.816,10.771
			c-0.176-0.003-0.354-0.005-0.536-0.005c-7.101,0-12.567,2.476-15.81,7.162c-3.295,4.762-3.813,9.359-3.23,12.964
			c-2.574,1.621-5.103,4.423-6.51,9.003c-1.398,4.542-0.439,7.852,0.612,9.829c0.463,0.87,1.006,1.617,1.58,2.254
			c-0.973,1.969-1.778,4.473-1.767,7.356c0.014,3.095,1.027,7.758,5.794,12.396c5.754,5.592,12.021,7.319,16.795,7.664
			C33.501,124.936,34.918,129.003,39.04,133.13z M71.863,109.229c0.756,0.117,1.538,0.183,2.341,0.183
			c1.419,0,3.098-0.208,4.876-0.856c-0.112,5.482-0.647,10.682-1.269,15.027C75.273,118.629,73.335,113.705,71.863,109.229z
			 M118.704,123.186c0.165-3.122,0.648-6.568,1.448-10.326c0.937,0.417,1.913,0.786,2.929,1.104
			c1.404,0.439,2.807,0.694,4.178,0.761C124.106,118.338,121.152,121.123,118.704,123.186z M100.958,105.257
			c0.168-1.468,0.41-2.996,0.728-4.582c0.379,0.139,0.761,0.261,1.147,0.367C102.214,102.496,101.584,103.906,100.958,105.257z"/>
		<path style="fill:#F1F1F1;" d="M161.381,166.514c3.369-1.554,7.143-3.049,11.298-4.476c0.146,0.684,0.349,1.37,0.612,2.051
			C169.168,165.087,165.124,165.882,161.381,166.514z M158.954,137.831c-5.373,2.556-10.136,4.003-13.85,4.822
			c3.035-5.3,6.509-10.219,10.39-14.71c0.983,0.565,2.023,1.033,3.107,1.396C157.441,133.168,158.245,136.184,158.954,137.831z
			 M38.501,132.24c3.334,3.334,7.379,5.097,11.702,5.097c1.789,0,3.441-0.297,4.892-0.727c1.442,5.895,3.259,16.192,2.146,27.616
			c-1.662,17.037-22.221,36.803-22.427,36.999c-0.219,0.209-0.419,0.438-0.596,0.684c-0.769,1.067-1.585,2.911-1.127,5.64
			c1.192,7.096,11.031,18.239,24.486,27.732c10.862,7.661,19.664,11.545,26.16,11.545c3.58,0,5.766-1.222,6.971-2.252
			c0.755-0.643,1.948-1.877,4.579-4.606c6.453-6.699,19.886-20.64,30.111-27.657c17.9-12.285,33.894-14.864,44.157-14.864
			c0.986,0,1.913,0.025,2.77,0.067c-0.318,0.932-0.553,1.938-0.654,3.01c-0.251,2.621,0.223,6.611,3.902,10.727
			c3.136,3.502,7.19,5.355,11.73,5.355c2.27,0,4.37-0.465,6.13-1.061c1.579,2.047,4.049,3.927,7.768,4.896
			c1.079,0.282,2.18,0.425,3.271,0.425c6.124,0,10.396-4.28,12.492-7.004c3.692-0.785,10.098-3.438,13.818-12.365
			c1.984-4.749,2.257-8.866,1.695-12.188c4.983-1.396,9.088-5.129,11.606-10.705c3.277-7.249,1.317-13.385-1.914-17.751
			c2.984-2.157,5.696-5.576,7.343-10.621c2.472-7.587-0.55-13.485-4.48-17.369c3.733-3.879,6.732-10.259,5.439-19.822
			c-1.469-10.829-8.347-17.104-13.304-20.288c1.863-3.903,3.387-9.716,0.988-16.296c-2.303-6.332-7.8-9.515-12.606-11.114
			c0.457-1.062,0.789-2.212,0.913-3.435c0.285-2.814-0.581-5.481-2.509-7.715c-2.477-2.865-4.947-4.307-7.085-4.982
			c-0.223-2.447-0.803-5.56-2.155-8.908c-2.715-6.74-9.156-15.711-24.409-20.182c-3.248-0.952-6.547-1.436-9.809-1.436
			c-9.957,0-17.839,4.407-22.847,8.289c-2.521-5.341-7.487-11.662-17.149-13.764c-1.674-0.363-3.341-0.549-4.957-0.549
			c-8.165,0-13.644,4.473-16.914,8.476c-2.71-2.285-6.544-4.343-11.223-4.1c-4.209,0.219-7.116,1.888-8.984,3.999
			c-3.621-1.782-8.887-3.715-14.698-3.715c-4.674,0-9.004,1.227-12.871,3.649c-8.301,5.193-11.51,11.774-12.702,16.746
			c-0.665-0.085-1.37-0.133-2.11-0.133c-3.742,0-7.517,1.208-11.226,3.595c-5.306,3.417-7.828,7.333-8.816,10.771
			c-0.176-0.004-0.354-0.006-0.537-0.006c-7.1,0-12.567,2.478-15.809,7.163c-3.294,4.761-3.813,9.36-3.23,12.964
			c-2.574,1.62-5.102,4.422-6.51,9.003c-1.398,4.542-0.439,7.852,0.612,9.829c0.463,0.869,1.006,1.616,1.581,2.254
			c-0.974,1.968-1.779,4.472-1.768,7.357c0.014,3.095,1.028,7.758,5.795,12.395c5.753,5.592,12.022,7.318,16.794,7.663
			C32.963,124.046,34.379,128.113,38.501,132.24z M71.325,108.341c0.755,0.116,1.537,0.181,2.341,0.181
			c1.419,0,3.097-0.208,4.876-0.855c-0.112,5.481-0.647,10.681-1.269,15.026C74.734,117.74,72.796,112.815,71.325,108.341z
			 M118.165,122.296c0.165-3.121,0.648-6.567,1.448-10.326c0.937,0.417,1.914,0.787,2.929,1.104
			c1.404,0.439,2.808,0.695,4.178,0.762C123.568,117.449,120.613,120.233,118.165,122.296z M100.419,104.368
			c0.168-1.468,0.41-2.996,0.728-4.581c0.379,0.137,0.761,0.26,1.147,0.366C101.676,101.607,101.045,103.018,100.419,104.368z"/>
		<path style="fill:#E2E2E2;" d="M160.843,165.625c3.369-1.553,7.143-3.049,11.297-4.475c0.146,0.684,0.35,1.368,0.612,2.05
			C168.63,164.199,164.585,164.993,160.843,165.625z M158.415,136.942c-5.372,2.556-10.135,4.004-13.85,4.822
			c3.036-5.299,6.51-10.218,10.39-14.71c0.984,0.566,2.024,1.033,3.107,1.396C156.902,132.279,157.706,135.294,158.415,136.942z
			 M37.963,131.352c3.333,3.334,7.379,5.095,11.702,5.095c1.788,0,3.44-0.296,4.892-0.726c1.44,5.895,3.259,16.192,2.146,27.617
			c-1.663,17.036-22.222,36.802-22.427,36.998c-0.219,0.209-0.42,0.438-0.597,0.684c-0.768,1.067-1.585,2.911-1.127,5.64
			c1.193,7.096,11.032,18.239,24.486,27.732c10.863,7.661,19.665,11.545,26.161,11.545c3.58,0,5.765-1.223,6.971-2.252
			c0.754-0.645,1.948-1.879,4.578-4.607c6.454-6.699,19.887-20.639,30.112-27.657c17.9-12.285,33.894-14.863,44.157-14.863
			c0.986,0,1.912,0.024,2.77,0.066c-0.319,0.932-0.553,1.938-0.654,3.01c-0.25,2.622,0.223,6.611,3.901,10.727
			c3.136,3.503,7.191,5.354,11.73,5.354c2.27,0,4.37-0.464,6.129-1.058c1.58,2.045,4.05,3.925,7.769,4.896
			c1.079,0.281,2.18,0.424,3.271,0.424c6.124,0,10.396-4.28,12.492-7.005c3.692-0.784,10.098-3.437,13.818-12.363
			c1.983-4.749,2.256-8.867,1.695-12.188c4.983-1.396,9.088-5.13,11.606-10.705c3.277-7.249,1.318-13.385-1.914-17.752
			c2.983-2.157,5.695-5.575,7.343-10.621c2.472-7.588-0.55-13.485-4.48-17.369c3.733-3.879,6.732-10.259,5.438-19.822
			c-1.468-10.828-8.347-17.104-13.303-20.288c1.862-3.903,3.387-9.716,0.988-16.295c-2.303-6.333-7.8-9.517-12.607-11.113
			c0.456-1.064,0.788-2.213,0.912-3.437c0.286-2.815-0.581-5.482-2.509-7.716c-2.477-2.865-4.946-4.307-7.084-4.982
			c-0.224-2.447-0.804-5.558-2.155-8.909c-2.716-6.739-9.156-15.709-24.41-20.181c-3.247-0.952-6.546-1.435-9.808-1.435
			c-9.958,0-17.839,4.406-22.848,8.288c-2.521-5.341-7.486-11.662-17.15-13.763c-1.673-0.364-3.34-0.55-4.956-0.55
			c-8.165,0-13.645,4.473-16.915,8.477c-2.71-2.285-6.543-4.344-11.223-4.101c-4.209,0.219-7.116,1.889-8.984,3.999
			c-3.62-1.782-8.887-3.715-14.697-3.715c-4.674,0-9.005,1.227-12.871,3.647c-8.301,5.194-11.51,11.774-12.703,16.748
			c-0.665-0.086-1.369-0.134-2.109-0.134c-3.742,0-7.518,1.208-11.227,3.595c-5.306,3.416-7.828,7.333-8.816,10.77
			c-0.176-0.004-0.354-0.006-0.536-0.006c-7.101,0-12.567,2.478-15.81,7.163c-3.295,4.762-3.813,9.36-3.231,12.965
			c-2.574,1.62-5.102,4.421-6.509,9.002c-1.399,4.542-0.44,7.853,0.611,9.829c0.463,0.871,1.006,1.616,1.58,2.254
			c-0.973,1.969-1.778,4.473-1.767,7.356c0.014,3.095,1.028,7.758,5.795,12.395c5.753,5.593,12.021,7.319,16.794,7.665
			C32.425,123.157,33.841,127.227,37.963,131.352z M70.787,107.452c0.755,0.116,1.537,0.182,2.34,0.182
			c1.42,0,3.098-0.208,4.876-0.856c-0.112,5.483-0.646,10.682-1.269,15.027C74.196,116.851,72.258,111.927,70.787,107.452z
			 M117.627,121.407c0.165-3.12,0.648-6.567,1.448-10.325c0.937,0.418,1.913,0.786,2.93,1.104c1.403,0.438,2.806,0.694,4.177,0.762
			C123.029,116.561,120.075,119.346,117.627,121.407z M99.881,103.479c0.168-1.468,0.41-2.996,0.728-4.581
			c0.379,0.138,0.761,0.259,1.147,0.366C101.137,100.719,100.507,102.129,99.881,103.479z"/>
		<path style="fill:#D4D4D4;" d="M160.305,164.736c3.368-1.553,7.142-3.05,11.297-4.476c0.146,0.685,0.349,1.369,0.611,2.05
			C168.091,163.31,164.046,164.105,160.305,164.736z M157.876,136.053c-5.372,2.557-10.135,4.004-13.85,4.822
			c3.036-5.299,6.51-10.218,10.39-14.71c0.984,0.566,2.025,1.034,3.107,1.397C156.363,131.391,157.167,134.405,157.876,136.053z
			 M37.424,130.463c3.333,3.334,7.38,5.097,11.702,5.097c1.788,0,3.44-0.298,4.892-0.727c1.44,5.894,3.26,16.191,2.146,27.616
			c-1.662,17.037-22.223,36.802-22.427,36.998c-0.219,0.209-0.419,0.438-0.596,0.686c-0.765,1.067-1.586,2.909-1.127,5.638
			c1.193,7.096,11.031,18.24,24.485,27.733c10.864,7.66,19.665,11.544,26.162,11.544c3.579,0,5.764-1.223,6.97-2.252
			c0.755-0.644,1.948-1.878,4.578-4.607c6.454-6.699,19.887-20.639,30.112-27.657c17.9-12.285,33.894-14.863,44.157-14.863
			c0.986,0,1.913,0.025,2.771,0.067c-0.32,0.931-0.554,1.938-0.655,3.01c-0.25,2.621,0.223,6.61,3.902,10.727
			c3.135,3.503,7.191,5.355,11.73,5.355c2.27,0,4.37-0.464,6.13-1.059c1.579,2.045,4.049,3.925,7.768,4.896
			c1.079,0.281,2.18,0.424,3.271,0.424c6.124,0,10.396-4.28,12.493-7.004c3.691-0.784,10.097-3.438,13.819-12.364
			c1.982-4.749,2.254-8.867,1.693-12.188c4.983-1.397,9.088-5.131,11.606-10.706c3.278-7.249,1.318-13.384-1.914-17.751
			c2.983-2.157,5.697-5.576,7.343-10.622c2.472-7.586-0.55-13.485-4.48-17.369c3.734-3.879,6.733-10.259,5.438-19.822
			c-1.467-10.828-8.347-17.102-13.303-20.287c1.863-3.903,3.387-9.716,0.988-16.296c-2.303-6.333-7.8-9.516-12.606-11.113
			c0.457-1.063,0.788-2.213,0.913-3.436c0.285-2.814-0.581-5.482-2.51-7.717c-2.477-2.864-4.945-4.307-7.084-4.981
			c-0.224-2.448-0.803-5.559-2.154-8.909c-2.717-6.739-9.157-15.71-24.41-20.182c-3.248-0.952-6.547-1.434-9.809-1.434
			c-9.957,0-17.839,4.407-22.848,8.288c-2.52-5.34-7.486-11.661-17.149-13.763c-1.673-0.364-3.34-0.549-4.956-0.549
			c-8.165,0-13.644,4.473-16.914,8.476c-2.711-2.285-6.543-4.334-11.224-4.099c-4.208,0.226-7.116,1.887-8.984,3.997
			c-3.62-1.782-8.887-3.714-14.697-3.714c-4.674,0-9.005,1.228-12.871,3.647c-8.301,5.195-11.51,11.774-12.703,16.747
			c-0.665-0.085-1.369-0.134-2.108-0.134c-3.743,0-7.519,1.209-11.228,3.595c-5.306,3.417-7.828,7.333-8.816,10.771
			c-0.175-0.004-0.353-0.006-0.536-0.006c-7.1,0-12.567,2.477-15.809,7.162c-3.295,4.762-3.814,9.36-3.231,12.965
			c-2.575,1.62-5.104,4.423-6.51,9.003c-1.4,4.542-0.44,7.852,0.612,9.828c0.463,0.871,1.006,1.617,1.579,2.255
			c-0.973,1.969-1.778,4.472-1.767,7.356c0.014,3.095,1.028,7.757,5.796,12.395c5.753,5.592,12.021,7.32,16.793,7.665
			C31.886,122.27,33.302,126.337,37.424,130.463z M70.248,106.563c0.755,0.116,1.537,0.182,2.341,0.182
			c1.42,0,3.097-0.207,4.875-0.856c-0.112,5.483-0.646,10.682-1.268,15.027C73.658,115.962,71.72,111.038,70.248,106.563z
			 M117.088,120.519c0.165-3.12,0.648-6.568,1.448-10.326c0.937,0.418,1.913,0.787,2.931,1.104c1.402,0.439,2.806,0.694,4.176,0.762
			C122.49,115.671,119.536,118.456,117.088,120.519z M99.342,102.591c0.168-1.469,0.41-2.996,0.728-4.582
			c0.379,0.138,0.762,0.261,1.147,0.366C100.598,99.83,99.968,101.24,99.342,102.591z"/>
		<path style="fill:#C5C5C5;" d="M159.766,163.848c3.369-1.554,7.143-3.05,11.297-4.475c0.145,0.686,0.35,1.369,0.612,2.051
			C167.553,162.421,163.508,163.216,159.766,163.848z M157.339,135.164c-5.373,2.557-10.136,4.004-13.851,4.822
			c3.037-5.299,6.51-10.217,10.39-14.71c0.984,0.566,2.025,1.035,3.107,1.397C155.825,130.503,156.629,133.517,157.339,135.164z
			 M36.887,129.574c3.332,3.335,7.379,5.097,11.701,5.097c1.788,0,3.44-0.298,4.892-0.726c1.44,5.894,3.26,16.19,2.146,27.615
			c-1.663,17.038-22.222,36.804-22.427,36.998c-0.219,0.21-0.42,0.439-0.597,0.685c-0.768,1.066-1.585,2.911-1.126,5.639
			c1.192,7.096,11.031,18.24,24.485,27.733c10.863,7.66,19.666,11.544,26.162,11.544c3.579,0,5.764-1.222,6.97-2.25
			c0.754-0.645,1.948-1.88,4.578-4.609c6.454-6.698,19.887-20.639,30.112-27.657c17.9-12.285,33.894-14.863,44.157-14.863
			c0.986,0,1.912,0.024,2.77,0.066c-0.319,0.932-0.553,1.938-0.654,3.012c-0.25,2.622,0.223,6.609,3.901,10.726
			c3.136,3.504,7.191,5.355,11.73,5.355c2.271,0,4.37-0.464,6.13-1.059c1.579,2.046,4.049,3.926,7.768,4.895
			c1.08,0.281,2.18,0.424,3.271,0.424c6.124,0,10.396-4.28,12.492-7.004c3.692-0.784,10.098-3.438,13.819-12.364
			c1.982-4.749,2.255-8.866,1.694-12.188c4.983-1.397,9.088-5.131,11.607-10.705c3.277-7.25,1.317-13.385-1.915-17.752
			c2.983-2.157,5.696-5.575,7.343-10.622c2.472-7.586-0.55-13.484-4.48-17.368c3.733-3.88,6.732-10.259,5.438-19.823
			c-1.466-10.828-8.347-17.103-13.303-20.287c1.862-3.903,3.387-9.716,0.988-16.296c-2.302-6.333-7.8-9.516-12.606-11.113
			c0.456-1.063,0.788-2.212,0.912-3.436c0.286-2.814-0.581-5.482-2.509-7.717c-2.477-2.864-4.945-4.307-7.084-4.98
			c-0.224-2.449-0.804-5.56-2.154-8.91c-2.716-6.739-9.156-15.71-24.41-20.182c-3.248-0.952-6.547-1.434-9.809-1.434
			c-9.957,0-17.839,4.406-22.848,8.287c-2.52-5.34-7.486-11.662-17.149-13.763c-1.673-0.364-3.34-0.549-4.956-0.549
			c-8.165,0-13.644,4.474-16.914,8.476c-2.711-2.285-6.542-4.334-11.224-4.099c-4.209,0.227-7.116,1.887-8.983,3.997
			c-3.621-1.781-8.888-3.713-14.698-3.713c-4.674,0-9.005,1.227-12.871,3.647c-8.3,5.195-11.51,11.774-12.703,16.747
			c-0.665-0.085-1.369-0.134-2.109-0.134c-3.742,0-7.518,1.209-11.227,3.595c-5.306,3.417-7.828,7.333-8.815,10.771
			c-0.177-0.003-0.354-0.005-0.537-0.005c-7.101,0-12.567,2.479-15.81,7.163c-3.294,4.762-3.813,9.359-3.23,12.964
			c-2.573,1.621-5.103,4.423-6.509,9.003c-1.399,4.542-0.44,7.852,0.611,9.828c0.464,0.871,1.006,1.617,1.58,2.255
			c-0.973,1.969-1.777,4.472-1.767,7.356c0.014,3.095,1.028,7.757,5.795,12.396c5.753,5.592,12.02,7.319,16.794,7.664
			C31.348,121.381,32.764,125.448,36.887,129.574z M69.71,105.674c0.755,0.116,1.537,0.182,2.341,0.182
			c1.419,0,3.098-0.207,4.875-0.856c-0.112,5.483-0.646,10.683-1.269,15.028C73.119,115.073,71.181,110.149,69.71,105.674z
			 M116.55,119.63c0.165-3.121,0.649-6.568,1.448-10.325c0.937,0.417,1.913,0.785,2.93,1.104c1.403,0.438,2.806,0.693,4.177,0.761
			C121.952,114.783,118.998,117.567,116.55,119.63z M98.804,101.702c0.168-1.469,0.41-2.996,0.728-4.581
			c0.379,0.139,0.761,0.26,1.147,0.365C100.061,98.94,99.43,100.352,98.804,101.702z"/>
		<path style="fill:#B7B7B7;" d="M159.229,162.959c3.368-1.553,7.142-3.05,11.296-4.474c0.146,0.684,0.35,1.367,0.612,2.05
			C167.015,161.532,162.97,162.327,159.229,162.959z M156.801,134.276c-5.373,2.556-10.135,4.003-13.851,4.822
			c3.036-5.3,6.51-10.218,10.39-14.71c0.984,0.566,2.024,1.035,3.107,1.396C155.287,129.614,156.091,132.628,156.801,134.276z
			 M36.348,128.686c3.333,3.335,7.38,5.097,11.702,5.097c1.788,0,3.44-0.298,4.892-0.726c1.441,5.894,3.26,16.191,2.146,27.616
			c-1.663,17.038-22.221,36.803-22.427,36.999c-0.219,0.209-0.42,0.438-0.597,0.684c-0.768,1.066-1.585,2.91-1.126,5.638
			c1.192,7.097,11.031,18.241,24.485,27.734c10.863,7.659,19.665,11.543,26.162,11.543c3.579,0,5.764-1.222,6.97-2.25
			c0.754-0.644,1.948-1.88,4.578-4.607c6.454-6.699,19.887-20.64,30.112-27.658c17.9-12.285,33.894-14.863,44.157-14.863
			c0.986,0,1.912,0.024,2.771,0.066c-0.319,0.933-0.553,1.939-0.654,3.011c-0.25,2.622,0.223,6.609,3.901,10.727
			c3.136,3.503,7.191,5.355,11.73,5.355c2.271,0,4.37-0.465,6.13-1.06c1.58,2.046,4.049,3.926,7.769,4.895
			c1.078,0.282,2.179,0.425,3.27,0.425c6.124,0,10.396-4.28,12.492-7.005c3.692-0.784,10.098-3.438,13.819-12.363
			c1.982-4.75,2.255-8.866,1.694-12.188c4.983-1.398,9.088-5.131,11.606-10.706c3.278-7.248,1.318-13.385-1.914-17.752
			c2.984-2.156,5.696-5.575,7.343-10.62c2.472-7.588-0.55-13.486-4.48-17.369c3.733-3.881,6.732-10.259,5.438-19.824
			c-1.467-10.828-8.347-17.103-13.303-20.287c1.862-3.902,3.387-9.715,0.988-16.296c-2.303-6.332-7.8-9.516-12.606-11.112
			c0.456-1.063,0.788-2.213,0.913-3.437c0.285-2.813-0.582-5.482-2.51-7.717c-2.477-2.864-4.945-4.306-7.084-4.98
			c-0.224-2.448-0.804-5.559-2.154-8.91c-2.716-6.738-9.156-15.709-24.41-20.181c-3.248-0.953-6.547-1.434-9.809-1.434
			c-9.957,0-17.839,4.406-22.848,8.286c-2.52-5.339-7.486-11.661-17.149-13.762c-1.673-0.363-3.34-0.55-4.956-0.55
			c-8.164,0-13.644,4.474-16.914,8.476c-2.711-2.284-6.543-4.334-11.224-4.099c-4.209,0.228-7.116,1.887-8.983,3.997
			c-3.621-1.78-8.888-3.713-14.698-3.713c-4.674,0-9.005,1.228-12.871,3.646c-8.3,5.195-11.51,11.774-12.703,16.747
			c-0.665-0.085-1.369-0.134-2.109-0.134c-3.742,0-7.518,1.209-11.226,3.596c-5.306,3.416-7.828,7.332-8.816,10.771
			c-0.177-0.004-0.354-0.006-0.536-0.006c-7.102,0-12.567,2.479-15.811,7.164c-3.294,4.761-3.813,9.358-3.229,12.963
			c-2.575,1.621-5.104,4.423-6.51,9.003c-1.399,4.542-0.439,7.852,0.611,9.83c0.464,0.869,1.006,1.615,1.58,2.254
			c-0.973,1.969-1.777,4.472-1.767,7.356c0.014,3.094,1.028,7.757,5.795,12.395c5.753,5.593,12.021,7.32,16.794,7.665
			C30.81,120.492,32.226,124.56,36.348,128.686z M69.172,104.785c0.755,0.117,1.537,0.183,2.341,0.183
			c1.419,0,3.098-0.208,4.875-0.855c-0.112,5.482-0.646,10.681-1.269,15.027C72.581,114.186,70.643,109.261,69.172,104.785z
			 M116.012,118.741c0.165-3.12,0.648-6.568,1.448-10.325c0.937,0.417,1.913,0.786,2.93,1.104c1.403,0.439,2.806,0.693,4.177,0.762
			C121.414,113.896,118.46,116.681,116.012,118.741z M98.266,100.813c0.168-1.468,0.41-2.995,0.728-4.581
			c0.379,0.139,0.761,0.26,1.147,0.366C99.522,98.053,98.893,99.463,98.266,100.813z"/>
		<path style="fill:#A8A8A8;" d="M158.689,162.069c3.37-1.554,7.144-3.048,11.297-4.474c0.146,0.684,0.35,1.368,0.613,2.05
			C166.477,160.643,162.432,161.439,158.689,162.069z M156.262,133.387c-5.373,2.557-10.134,4.005-13.851,4.823
			c3.036-5.3,6.511-10.219,10.39-14.71c0.984,0.566,2.024,1.034,3.108,1.396C154.749,128.725,155.552,131.74,156.262,133.387z
			 M35.809,127.797c3.333,3.335,7.38,5.097,11.703,5.097c1.787,0,3.441-0.298,4.891-0.726c1.44,5.893,3.26,16.191,2.146,27.616
			c-1.662,17.038-22.221,36.804-22.427,36.999c-0.219,0.209-0.42,0.438-0.597,0.683c-0.771,1.066-1.585,2.912-1.126,5.64
			c1.192,7.097,11.031,18.241,24.485,27.733c10.863,7.661,19.665,11.545,26.162,11.545c3.58,0,5.764-1.224,6.97-2.252
			c0.754-0.645,1.949-1.879,4.578-4.607c6.455-6.699,19.888-20.64,30.112-27.657c17.9-12.286,33.894-14.864,44.158-14.864
			c0.987,0,1.911,0.024,2.77,0.065c-0.319,0.934-0.551,1.939-0.654,3.012c-0.25,2.622,0.223,6.611,3.901,10.727
			c3.136,3.503,7.191,5.355,11.73,5.355c2.27,0,4.371-0.465,6.13-1.06c1.58,2.045,4.049,3.926,7.769,4.896
			c1.078,0.281,2.18,0.425,3.27,0.425c6.125,0,10.396-4.281,12.492-7.004c3.692-0.785,10.099-3.439,13.819-12.365
			c1.982-4.748,2.256-8.866,1.695-12.188c4.982-1.397,9.088-5.13,11.605-10.706c3.278-7.248,1.318-13.384-1.913-17.751
			c2.983-2.156,5.695-5.575,7.343-10.621c2.471-7.587-0.551-13.485-4.48-17.369c3.732-3.879,6.731-10.259,5.436-19.823
			c-1.467-10.828-8.346-17.103-13.302-20.287c1.862-3.902,3.387-9.715,0.988-16.296c-2.304-6.332-7.801-9.515-12.606-11.113
			c0.455-1.062,0.788-2.213,0.912-3.436c0.286-2.814-0.582-5.481-2.509-7.717c-2.477-2.864-4.946-4.306-7.084-4.982
			c-0.225-2.447-0.805-5.559-2.155-8.909c-2.716-6.738-9.156-15.709-24.41-20.182c-3.246-0.951-6.547-1.434-9.808-1.434
			c-9.958,0-17.839,4.406-22.849,8.287c-2.521-5.34-7.486-11.662-17.15-13.763c-1.672-0.363-3.339-0.548-4.955-0.548
			c-8.165,0-13.646,4.472-16.914,8.474c-2.711-2.283-6.544-4.333-11.225-4.098c-4.209,0.226-7.115,1.887-8.983,3.997
			c-3.62-1.781-8.888-3.714-14.697-3.714c-4.675,0-9.005,1.227-12.872,3.647c-8.299,5.195-11.509,11.775-12.703,16.747
			c-0.664-0.086-1.369-0.134-2.109-0.134c-3.742,0-7.518,1.209-11.226,3.595c-5.307,3.417-7.829,7.333-8.816,10.77
			c-0.177-0.002-0.354-0.003-0.536-0.003c-7.101,0-12.566,2.477-15.811,7.162c-3.294,4.762-3.813,9.359-3.229,12.963
			c-2.575,1.622-5.102,4.424-6.51,9.003c-1.398,4.543-0.439,7.853,0.611,9.83c0.464,0.87,1.007,1.617,1.58,2.254
			c-0.972,1.969-1.776,4.473-1.766,7.356c0.013,3.095,1.027,7.758,5.794,12.396c5.754,5.592,12.021,7.319,16.795,7.664
			C30.271,119.604,31.687,123.671,35.809,127.797z M68.634,103.896c0.754,0.117,1.536,0.183,2.34,0.183
			c1.419,0,3.098-0.208,4.875-0.856c-0.112,5.482-0.646,10.681-1.269,15.027C72.042,113.297,70.104,108.373,68.634,103.896z
			 M115.474,117.853c0.165-3.122,0.647-6.568,1.448-10.326c0.936,0.418,1.913,0.786,2.929,1.104c1.403,0.44,2.806,0.694,4.177,0.762
			C120.875,113.006,117.922,115.791,115.474,117.853z M97.728,99.925c0.167-1.468,0.409-2.996,0.728-4.582
			c0.378,0.139,0.76,0.261,1.146,0.367C98.983,97.163,98.354,98.574,97.728,99.925z"/>
		<path style="fill:#9A9A9A;" d="M158.15,161.182c3.369-1.554,7.144-3.049,11.297-4.475c0.146,0.683,0.35,1.369,0.613,2.05
			C165.938,159.754,161.893,160.55,158.15,161.182z M155.724,132.499c-5.373,2.557-10.135,4.004-13.852,4.822
			c3.037-5.299,6.511-10.22,10.391-14.71c0.984,0.566,2.024,1.034,3.107,1.396C154.21,127.835,155.014,130.852,155.724,132.499z
			 M35.271,126.909c3.333,3.334,7.38,5.096,11.701,5.096c1.789,0,3.441-0.297,4.893-0.728c1.44,5.895,3.26,16.192,2.146,27.618
			c-1.662,17.037-22.221,36.803-22.427,36.998c-0.219,0.209-0.42,0.438-0.597,0.684c-0.768,1.066-1.585,2.911-1.126,5.64
			c1.192,7.095,11.031,18.24,24.485,27.732c10.863,7.661,19.665,11.545,26.162,11.545c3.578,0,5.763-1.224,6.97-2.253
			c0.754-0.644,1.948-1.878,4.578-4.606c6.455-6.699,19.887-20.639,30.112-27.657c17.9-12.285,33.894-14.863,44.157-14.863
			c0.987,0,1.912,0.024,2.77,0.065c-0.32,0.933-0.552,1.938-0.654,3.01c-0.25,2.622,0.223,6.612,3.901,10.728
			c3.136,3.502,7.192,5.355,11.73,5.355c2.271,0,4.371-0.465,6.131-1.06c1.58,2.045,4.049,3.926,7.769,4.895
			c1.078,0.281,2.18,0.425,3.27,0.425c6.124,0,10.396-4.281,12.492-7.004c3.692-0.784,10.099-3.438,13.819-12.365
			c1.982-4.748,2.255-8.866,1.694-12.188c4.983-1.397,9.088-5.13,11.607-10.707c3.278-7.247,1.318-13.383-1.914-17.75
			c2.983-2.156,5.696-5.575,7.343-10.621c2.472-7.587-0.55-13.486-4.481-17.369c3.734-3.879,6.733-10.26,5.438-19.822
			c-1.467-10.828-8.346-17.104-13.302-20.288c1.862-3.902,3.386-9.715,0.986-16.297c-2.302-6.331-7.799-9.514-12.604-11.112
			c0.455-1.062,0.788-2.214,0.912-3.436c0.286-2.814-0.582-5.481-2.51-7.717c-2.476-2.864-4.945-4.306-7.084-4.982
			c-0.224-2.446-0.804-5.558-2.154-8.908c-2.717-6.738-9.156-15.709-24.411-20.181c-3.247-0.952-6.546-1.435-9.808-1.435
			c-9.957,0-17.839,4.406-22.849,8.287c-2.52-5.339-7.485-11.661-17.148-13.763c-1.673-0.363-3.34-0.548-4.956-0.548
			c-8.164,0-13.645,4.471-16.914,8.475c-2.71-2.284-6.543-4.333-11.224-4.099c-4.209,0.227-7.115,1.887-8.984,3.998
			c-3.62-1.782-8.887-3.716-14.697-3.716c-4.674,0-9.005,1.228-12.871,3.649c-8.3,5.194-11.51,11.774-12.703,16.745
			c-0.665-0.084-1.369-0.133-2.109-0.133c-3.742,0-7.518,1.209-11.227,3.596c-5.306,3.416-7.828,7.332-8.815,10.771
			c-0.177-0.003-0.354-0.005-0.536-0.005c-7.1,0-12.567,2.476-15.81,7.161c-3.294,4.763-3.813,9.36-3.229,12.965
			c-2.575,1.621-5.104,4.423-6.51,9.003c-1.399,4.542-0.439,7.852,0.611,9.829c0.464,0.87,1.007,1.617,1.58,2.254
			c-0.973,1.969-1.777,4.473-1.767,7.356c0.014,3.095,1.028,7.758,5.795,12.396c5.754,5.591,12.02,7.319,16.793,7.664
			C29.732,118.715,31.149,122.782,35.271,126.909z M68.095,103.008c0.755,0.117,1.537,0.183,2.341,0.183
			c1.419,0,3.098-0.208,4.874-0.856c-0.111,5.482-0.646,10.681-1.268,15.027C71.504,112.408,69.565,107.484,68.095,103.008z
			 M114.935,116.965c0.165-3.122,0.648-6.568,1.449-10.327c0.936,0.418,1.912,0.787,2.929,1.104c1.403,0.44,2.806,0.695,4.177,0.762
			C120.337,112.117,117.383,114.902,114.935,116.965z M97.188,99.036c0.168-1.468,0.41-2.996,0.728-4.583
			c0.379,0.139,0.761,0.262,1.147,0.368C98.445,96.275,97.815,97.686,97.188,99.036z"/>
		<path style="fill:#8B8B8B;" d="M157.612,160.292c3.368-1.553,7.143-3.048,11.297-4.475c0.146,0.684,0.349,1.37,0.612,2.051
			C165.398,158.865,161.354,159.661,157.612,160.292z M155.185,131.61c-5.373,2.557-10.135,4.004-13.851,4.822
			c3.036-5.299,6.51-10.218,10.39-14.711c0.984,0.566,2.024,1.035,3.107,1.398C153.672,126.947,154.475,129.963,155.185,131.61z
			 M34.731,126.021c3.333,3.334,7.38,5.096,11.702,5.096c1.788,0,3.44-0.297,4.892-0.727c1.441,5.895,3.261,16.193,2.146,27.617
			c-1.661,17.038-22.222,36.803-22.427,36.999c-0.219,0.208-0.419,0.438-0.596,0.683c-0.767,1.068-1.586,2.912-1.127,5.641
			c1.193,7.095,11.031,18.24,24.486,27.732c10.863,7.661,19.665,11.545,26.162,11.545c3.578,0,5.763-1.224,6.969-2.252
			c0.755-0.643,1.948-1.878,4.578-4.607c6.455-6.7,19.887-20.64,30.113-27.658c17.899-12.285,33.893-14.863,44.156-14.863
			c0.987,0,1.913,0.024,2.771,0.066c-0.32,0.932-0.553,1.938-0.655,3.011c-0.25,2.622,0.223,6.611,3.902,10.727
			c3.135,3.503,7.192,5.355,11.73,5.355c2.27,0,4.37-0.464,6.131-1.06c1.579,2.046,4.048,3.926,7.768,4.895
			c1.079,0.281,2.181,0.425,3.271,0.425c6.124,0,10.395-4.28,12.493-7.004c3.692-0.784,10.098-3.438,13.819-12.365
			c1.981-4.748,2.254-8.867,1.693-12.188c4.983-1.396,9.088-5.13,11.607-10.707c3.277-7.248,1.317-13.383-1.915-17.749
			c2.984-2.157,5.697-5.576,7.344-10.622c2.471-7.587-0.551-13.486-4.48-17.37c3.733-3.878,6.732-10.258,5.437-19.822
			c-1.467-10.827-8.346-17.103-13.302-20.288c1.863-3.901,3.386-9.714,0.987-16.296c-2.303-6.331-7.8-9.514-12.605-11.113
			c0.456-1.06,0.788-2.212,0.913-3.435c0.285-2.815-0.582-5.482-2.511-7.716c-2.476-2.865-4.944-4.308-7.084-4.983
			c-0.223-2.446-0.803-5.559-2.153-8.907c-2.717-6.739-9.157-15.71-24.411-20.183c-3.247-0.952-6.547-1.435-9.809-1.435
			c-9.957,0-17.839,4.408-22.848,8.289c-2.52-5.34-7.486-11.663-17.149-13.764c-1.673-0.364-3.34-0.548-4.956-0.548
			c-8.163,0-13.645,4.472-16.914,8.474c-2.71-2.284-6.543-4.332-11.224-4.098c-4.208,0.226-7.115,1.887-8.983,3.998
			c-3.621-1.782-8.888-3.715-14.698-3.715c-4.674,0-9.005,1.228-12.871,3.648c-8.3,5.194-11.51,11.774-12.703,16.745
			c-0.665-0.085-1.368-0.132-2.108-0.132c-3.743,0-7.519,1.208-11.227,3.595c-5.305,3.417-7.829,7.332-8.816,10.77
			c-0.176-0.002-0.354-0.004-0.536-0.004c-7.1,0-12.567,2.476-15.81,7.162c-3.294,4.762-3.813,9.36-3.229,12.963
			c-2.576,1.622-5.104,4.424-6.511,9.003c-1.399,4.543-0.439,7.854,0.612,9.83c0.463,0.87,1.007,1.617,1.58,2.255
			C7.362,88.9,6.558,91.405,6.568,94.29c0.014,3.095,1.028,7.757,5.796,12.395c5.754,5.592,12.021,7.319,16.793,7.663
			C29.193,117.826,30.609,121.894,34.731,126.021z M67.556,102.119c0.755,0.117,1.538,0.182,2.342,0.182
			c1.419,0,3.097-0.207,4.874-0.856c-0.112,5.483-0.646,10.683-1.267,15.027C70.966,111.52,69.027,106.596,67.556,102.119z
			 M114.396,116.076c0.165-3.122,0.648-6.568,1.449-10.326c0.936,0.417,1.912,0.785,2.93,1.104c1.402,0.439,2.806,0.694,4.177,0.761
			C119.798,111.229,116.844,114.013,114.396,116.076z M96.65,98.147c0.167-1.469,0.41-2.997,0.727-4.582
			c0.379,0.139,0.762,0.261,1.147,0.367C97.906,95.386,97.276,96.797,96.65,98.147z"/>
		<path style="fill:#7D7D7D;" d="M157.073,159.403c3.369-1.553,7.143-3.049,11.297-4.475c0.146,0.685,0.35,1.369,0.613,2.05
			C164.86,157.979,160.816,158.771,157.073,159.403z M154.646,130.721c-5.373,2.557-10.135,4.005-13.851,4.823
			c3.036-5.299,6.51-10.219,10.39-14.711c0.984,0.566,2.024,1.034,3.107,1.397C153.134,126.059,153.936,129.073,154.646,130.721z
			 M34.194,125.132c3.332,3.334,7.379,5.095,11.701,5.095c1.788,0,3.44-0.297,4.892-0.727c1.44,5.895,3.26,16.193,2.146,27.617
			c-1.662,17.037-22.221,36.803-22.427,36.998c-0.219,0.21-0.419,0.438-0.597,0.684c-0.768,1.067-1.585,2.912-1.126,5.641
			c1.192,7.096,11.031,18.239,24.485,27.732c10.863,7.661,19.666,11.545,26.162,11.545c3.579,0,5.764-1.224,6.97-2.253
			c0.754-0.644,1.948-1.878,4.578-4.607c6.455-6.699,19.887-20.639,30.112-27.657c17.901-12.285,33.894-14.863,44.157-14.863
			c0.987,0,1.912,0.024,2.771,0.066c-0.319,0.932-0.552,1.938-0.654,3.01c-0.25,2.622,0.223,6.612,3.901,10.728
			c3.136,3.503,7.192,5.354,11.73,5.354c2.27,0,4.37-0.464,6.13-1.058c1.58,2.044,4.05,3.925,7.768,4.895
			c1.079,0.281,2.18,0.425,3.271,0.425c6.124,0,10.395-4.281,12.493-7.005c3.692-0.784,10.098-3.438,13.818-12.364
			c1.982-4.748,2.255-8.867,1.694-12.188c4.983-1.396,9.088-5.131,11.607-10.706c3.277-7.249,1.317-13.385-1.915-17.751
			c2.984-2.157,5.696-5.575,7.344-10.622c2.471-7.587-0.551-13.484-4.48-17.369c3.732-3.878,6.731-10.259,5.436-19.822
			c-1.467-10.827-8.346-17.103-13.302-20.287c1.862-3.903,3.386-9.716,0.987-16.295c-2.303-6.334-7.8-9.517-12.605-11.114
			c0.455-1.063,0.788-2.213,0.912-3.435c0.286-2.815-0.582-5.483-2.51-7.716c-2.476-2.866-4.945-4.308-7.083-4.982
			c-0.224-2.448-0.805-5.559-2.155-8.909c-2.716-6.739-9.156-15.709-24.41-20.182c-3.247-0.952-6.547-1.435-9.809-1.435
			c-9.957,0-17.839,4.407-22.848,8.289c-2.52-5.341-7.486-11.663-17.149-13.764c-1.673-0.364-3.34-0.549-4.956-0.549
			c-8.164,0-13.645,4.472-16.914,8.476c-2.71-2.285-6.543-4.333-11.224-4.1c-4.208,0.226-7.115,1.888-8.983,3.999
			c-3.621-1.783-8.888-3.716-14.698-3.716c-4.674,0-9.005,1.229-12.871,3.648c-8.3,5.194-11.51,11.774-12.703,16.748
			c-0.665-0.087-1.368-0.134-2.109-0.134c-3.741,0-7.518,1.208-11.226,3.594c-5.306,3.417-7.829,7.333-8.816,10.771
			c-0.177-0.003-0.354-0.005-0.536-0.005c-7.101,0-12.567,2.478-15.811,7.162c-3.294,4.763-3.813,9.361-3.229,12.965
			c-2.575,1.621-5.104,4.423-6.51,9.002c-1.399,4.543-0.44,7.854,0.612,9.829c0.463,0.872,1.006,1.617,1.579,2.255
			C6.824,88.012,6.02,90.517,6.03,93.4c0.014,3.095,1.028,7.758,5.795,12.395c5.754,5.592,12.02,7.319,16.794,7.665
			C28.655,116.937,30.071,121.006,34.194,125.132z M67.018,101.231c0.755,0.116,1.537,0.181,2.341,0.181
			c1.419,0,3.098-0.207,4.875-0.856c-0.112,5.483-0.646,10.682-1.268,15.027C70.427,110.63,68.488,105.706,67.018,101.231z
			 M113.858,115.187c0.164-3.121,0.647-6.567,1.448-10.326c0.936,0.419,1.912,0.786,2.929,1.104
			c1.403,0.439,2.806,0.695,4.178,0.762C119.26,110.339,116.306,113.124,113.858,115.187z M96.112,97.259
			c0.167-1.469,0.41-2.997,0.728-4.582c0.379,0.138,0.76,0.26,1.146,0.366C97.368,94.497,96.738,95.908,96.112,97.259z"/>
		<path style="fill:#6E6E6E;" d="M156.535,158.516c3.368-1.554,7.143-3.05,11.297-4.476c0.146,0.686,0.349,1.369,0.613,2.05
			C164.321,157.09,160.277,157.884,156.535,158.516z M154.108,129.832c-5.374,2.557-10.136,4.004-13.851,4.823
			c3.036-5.3,6.509-10.219,10.39-14.711c0.983,0.566,2.024,1.034,3.107,1.397C152.596,125.17,153.398,128.186,154.108,129.832z
			 M33.656,124.242c3.332,3.334,7.378,5.097,11.701,5.097c1.788,0,3.44-0.298,4.891-0.726c1.441,5.893,3.26,16.191,2.146,27.615
			c-1.661,17.037-22.221,36.802-22.427,36.998c-0.22,0.209-0.418,0.438-0.596,0.685c-0.768,1.066-1.585,2.91-1.126,5.64
			c1.191,7.096,11.031,18.239,24.485,27.732c10.862,7.66,19.666,11.544,26.161,11.544c3.58,0,5.765-1.223,6.97-2.252
			c0.755-0.644,1.948-1.878,4.579-4.607c6.454-6.698,19.886-20.639,30.112-27.656c17.901-12.286,33.893-14.864,44.156-14.864
			c0.987,0,1.913,0.024,2.77,0.066c-0.318,0.932-0.552,1.938-0.654,3.011c-0.25,2.622,0.224,6.61,3.902,10.727
			c3.136,3.503,7.191,5.354,11.73,5.354c2.27,0,4.37-0.464,6.13-1.059c1.579,2.045,4.05,3.925,7.768,4.895
			c1.08,0.281,2.181,0.425,3.27,0.425c6.124,0,10.396-4.281,12.493-7.005c3.693-0.784,10.098-3.438,13.818-12.364
			c1.983-4.749,2.256-8.867,1.694-12.188c4.983-1.397,9.088-5.131,11.608-10.705c3.276-7.25,1.316-13.385-1.916-17.752
			c2.985-2.157,5.697-5.576,7.345-10.622c2.47-7.585-0.552-13.484-4.48-17.369c3.731-3.878,6.73-10.259,5.437-19.822
			c-1.467-10.828-8.346-17.103-13.303-20.286c1.863-3.904,3.386-9.717,0.988-16.296c-2.303-6.334-7.801-9.517-12.606-11.114
			c0.456-1.063,0.789-2.212,0.913-3.436c0.285-2.814-0.582-5.482-2.51-7.717c-2.477-2.864-4.946-4.306-7.084-4.98
			c-0.223-2.449-0.804-5.559-2.155-8.909c-2.715-6.74-9.156-15.711-24.409-20.183c-3.247-0.951-6.548-1.434-9.809-1.434
			c-9.957,0-17.839,4.407-22.848,8.289c-2.52-5.341-7.487-11.663-17.149-13.764c-1.674-0.364-3.341-0.549-4.957-0.549
			c-8.163,0-13.644,4.473-16.913,8.476c-2.71-2.285-6.543-4.333-11.224-4.099c-4.208,0.226-7.115,1.887-8.983,3.997
			c-3.621-1.782-8.888-3.714-14.699-3.714c-4.673,0-9.004,1.228-12.87,3.647c-8.301,5.195-11.511,11.774-12.703,16.748
			c-0.665-0.087-1.369-0.135-2.11-0.135c-3.741,0-7.517,1.209-11.225,3.595c-5.306,3.418-7.828,7.334-8.816,10.771
			c-0.177-0.003-0.354-0.005-0.537-0.005c-7.1,0-12.567,2.478-15.809,7.162c-3.294,4.762-3.814,9.361-3.231,12.965
			c-2.574,1.62-5.103,4.423-6.51,9.003c-1.399,4.542-0.439,7.851,0.612,9.828c0.464,0.871,1.007,1.617,1.581,2.255
			c-0.975,1.969-1.779,4.472-1.768,7.356c0.013,3.095,1.028,7.758,5.794,12.396c5.754,5.591,12.021,7.319,16.795,7.664
			C28.116,116.049,29.532,120.116,33.656,124.242z M66.479,100.343c0.755,0.115,1.538,0.181,2.342,0.181
			c1.419,0,3.098-0.207,4.875-0.856c-0.112,5.483-0.647,10.682-1.267,15.027C69.888,109.742,67.949,104.817,66.479,100.343z
			 M113.319,114.298c0.164-3.121,0.648-6.567,1.448-10.326c0.936,0.418,1.913,0.786,2.929,1.104
			c1.404,0.439,2.807,0.695,4.178,0.762C118.722,109.45,115.767,112.235,113.319,114.298z M95.573,96.37
			c0.167-1.468,0.411-2.996,0.727-4.581c0.379,0.137,0.76,0.261,1.147,0.365C96.83,93.608,96.199,95.02,95.573,96.37z"/>
		<path style="fill:#606060;" d="M155.996,157.627c3.369-1.554,7.144-3.05,11.297-4.476c0.146,0.685,0.35,1.369,0.613,2.051
			C163.783,156.2,159.738,156.995,155.996,157.627z M153.569,128.943c-5.373,2.557-10.135,4.004-13.85,4.822
			c3.035-5.299,6.509-10.218,10.389-14.71c0.984,0.566,2.024,1.035,3.107,1.397C152.057,124.281,152.859,127.296,153.569,128.943z
			 M33.117,123.354c3.332,3.335,7.379,5.097,11.701,5.097c1.788,0,3.44-0.298,4.892-0.727c1.44,5.894,3.26,16.191,2.146,27.616
			c-1.662,17.038-22.222,36.803-22.427,36.998c-0.22,0.209-0.419,0.438-0.597,0.685c-0.767,1.066-1.585,2.911-1.126,5.639
			c1.192,7.096,11.032,18.24,24.485,27.733c10.863,7.66,19.666,11.544,26.162,11.544c3.58,0,5.764-1.223,6.97-2.251
			c0.754-0.645,1.948-1.879,4.578-4.608c6.455-6.698,19.887-20.639,30.113-27.657c17.9-12.285,33.893-14.863,44.156-14.863
			c0.987,0,1.913,0.024,2.77,0.066c-0.319,0.933-0.552,1.939-0.654,3.011c-0.25,2.622,0.223,6.61,3.901,10.727
			c3.136,3.503,7.192,5.354,11.73,5.354c2.271,0,4.371-0.464,6.13-1.059c1.58,2.045,4.05,3.926,7.769,4.895
			c1.079,0.281,2.18,0.424,3.27,0.424c6.124,0,10.396-4.28,12.493-7.004c3.692-0.784,10.098-3.438,13.818-12.364
			c1.982-4.749,2.256-8.866,1.694-12.188c4.983-1.398,9.088-5.131,11.607-10.706c3.277-7.249,1.317-13.384-1.915-17.751
			c2.984-2.157,5.696-5.575,7.344-10.622c2.472-7.586-0.551-13.484-4.48-17.368c3.732-3.88,6.731-10.26,5.436-19.823
			c-1.467-10.828-8.346-17.103-13.302-20.287c1.862-3.903,3.387-9.716,0.987-16.296c-2.303-6.333-7.799-9.516-12.605-11.113
			c0.455-1.063,0.788-2.213,0.912-3.436c0.286-2.814-0.582-5.482-2.51-7.717c-2.476-2.864-4.945-4.307-7.083-4.981
			c-0.224-2.448-0.805-5.559-2.155-8.909c-2.716-6.739-9.156-15.71-24.41-20.182c-3.247-0.952-6.547-1.434-9.808-1.434
			c-9.958,0-17.839,4.406-22.849,8.287c-2.52-5.34-7.486-11.662-17.149-13.763c-1.673-0.364-3.34-0.549-4.956-0.549
			c-8.164,0-13.644,4.473-16.914,8.476c-2.71-2.285-6.543-4.334-11.224-4.099c-4.208,0.227-7.115,1.887-8.983,3.997
			c-3.62-1.781-8.888-3.714-14.698-3.714c-4.674,0-9.004,1.227-12.871,3.648c-8.3,5.195-11.509,11.774-12.703,16.747
			c-0.665-0.085-1.368-0.134-2.109-0.134c-3.741,0-7.518,1.209-11.226,3.595c-5.306,3.417-7.828,7.333-8.816,10.771
			c-0.177-0.003-0.354-0.005-0.536-0.005c-7.101,0-12.567,2.478-15.809,7.162c-3.295,4.763-3.815,9.36-3.231,12.965
			c-2.575,1.621-5.104,4.423-6.51,9.003c-1.399,4.542-0.439,7.852,0.612,9.828c0.463,0.871,1.006,1.617,1.58,2.255
			c-0.974,1.969-1.778,4.472-1.767,7.356c0.013,3.095,1.027,7.757,5.794,12.396c5.754,5.591,12.021,7.319,16.794,7.664
			C27.578,115.16,28.994,119.228,33.117,123.354z M65.94,99.453c0.755,0.116,1.537,0.182,2.341,0.182
			c1.419,0,3.098-0.207,4.876-0.857c-0.113,5.483-0.647,10.682-1.269,15.028C69.35,108.853,67.411,103.929,65.94,99.453z
			 M112.781,113.409c0.164-3.121,0.647-6.568,1.448-10.326c0.936,0.418,1.912,0.786,2.929,1.104
			c1.404,0.439,2.806,0.694,4.178,0.762C118.184,108.563,115.229,111.347,112.781,113.409z M95.035,95.481
			c0.167-1.469,0.41-2.996,0.728-4.582c0.379,0.139,0.761,0.261,1.146,0.366C96.291,92.72,95.661,94.131,95.035,95.481z"/>
	</g>
	<path style="fill:#FFFFFF;" d="M33.117,123.354c3.332,3.335,7.379,5.097,11.701,5.097c1.788,0,3.44-0.298,4.892-0.727
		c1.44,5.894,3.26,16.191,2.146,27.616c-1.662,17.038-22.222,36.803-22.427,36.998c-0.22,0.209-0.419,0.438-0.597,0.685
		c-0.767,1.066-1.585,2.911-1.126,5.639c1.192,7.096,11.032,18.24,24.485,27.733c10.863,7.66,19.666,11.544,26.162,11.544
		c3.58,0,5.764-1.223,6.97-2.251c0.754-0.645,1.948-1.879,4.578-4.608c6.455-6.698,19.887-20.639,30.113-27.657
		c17.9-12.285,33.893-14.863,44.156-14.863c0.987,0,1.913,0.024,2.77,0.066c-0.319,0.933-0.552,1.939-0.654,3.011
		c-0.25,2.622,0.223,6.61,3.901,10.727c3.136,3.503,7.192,5.354,11.73,5.354c2.271,0,4.371-0.464,6.13-1.059
		c1.58,2.045,4.05,3.926,7.769,4.895c1.079,0.281,2.18,0.424,3.27,0.424c6.124,0,10.396-4.28,12.493-7.004
		c3.692-0.784,10.098-3.438,13.818-12.364c1.982-4.749,2.256-8.866,1.694-12.188c4.983-1.398,9.088-5.131,11.607-10.706
		c3.277-7.249,1.317-13.384-1.915-17.751c2.984-2.157,5.696-5.575,7.344-10.622c2.472-7.586-0.551-13.484-4.48-17.368
		c3.732-3.88,6.731-10.26,5.436-19.823c-1.467-10.828-8.346-17.103-13.302-20.287c1.862-3.903,3.387-9.716,0.987-16.296
		c-2.303-6.333-7.799-9.516-12.605-11.113c0.455-1.063,0.788-2.213,0.912-3.436c0.286-2.814-0.582-5.482-2.51-7.717
		c-2.476-2.864-4.945-4.307-7.083-4.981c-0.224-2.448-0.805-5.559-2.155-8.909c-2.716-6.739-9.156-15.71-24.41-20.182
		c-3.247-0.952-6.547-1.434-9.808-1.434c-9.958,0-17.839,4.406-22.849,8.287c-2.52-5.34-7.486-11.662-17.149-13.763
		c-1.673-0.364-3.34-0.549-4.956-0.549c-8.164,0-13.644,4.473-16.914,8.476c-2.71-2.285-6.543-4.334-11.224-4.099
		c-4.208,0.227-7.115,1.887-8.983,3.997c-3.62-1.781-8.888-3.714-14.698-3.714c-4.674,0-9.004,1.227-12.871,3.648
		c-8.3,5.195-11.509,11.774-12.703,16.747c-0.665-0.085-1.368-0.134-2.109-0.134c-3.741,0-7.518,1.209-11.226,3.595
		c-5.306,3.417-7.828,7.333-8.816,10.771c-0.177-0.003-0.354-0.005-0.536-0.005c-7.101,0-12.567,2.478-15.809,7.162
		c-3.295,4.763-3.815,9.36-3.231,12.965c-2.575,1.621-5.104,4.423-6.51,9.003c-1.399,4.542-0.439,7.852,0.612,9.828
		c0.463,0.871,1.006,1.617,1.58,2.255c-0.974,1.969-1.778,4.472-1.767,7.356c0.013,3.095,1.027,7.757,5.794,12.396
		c5.754,5.591,12.021,7.319,16.794,7.664C27.578,115.16,28.994,119.228,33.117,123.354z M65.94,99.453
		c0.755,0.116,1.537,0.182,2.341,0.182c1.419,0,3.098-0.207,4.876-0.857c-0.113,5.483-0.647,10.682-1.269,15.028
		C69.35,108.853,67.411,103.929,65.94,99.453z M112.781,113.409c0.164-3.121,0.647-6.568,1.448-10.326
		c0.936,0.418,1.912,0.786,2.929,1.104c1.404,0.439,2.806,0.694,4.178,0.762C118.184,108.563,115.229,111.347,112.781,113.409z
		 M95.035,95.481c0.167-1.469,0.41-2.996,0.728-4.582c0.379,0.139,0.761,0.261,1.146,0.366
		C96.291,92.72,95.661,94.131,95.035,95.481z M153.569,128.943c-5.373,2.557-10.135,4.004-13.85,4.822
		c3.035-5.299,6.509-10.218,10.389-14.71c0.984,0.566,2.024,1.035,3.107,1.397C152.057,124.281,152.859,127.296,153.569,128.943z
		 M155.996,157.627c3.369-1.554,7.144-3.05,11.297-4.476c0.146,0.685,0.35,1.369,0.613,2.051
		C163.783,156.2,159.738,156.995,155.996,157.627z"/>
	<g>
		<g>
			<g>
				<path style="fill:#052600;" d="M180.541,185.936c2.904-6.224,9.058-5.116,9.058-5.116c-4.011-7.547,4.482-11.669,4.482-11.669
					s-11.736-2.659-11.103-11.599c0.62-8.953,10.492-11.849,10.492-11.849c-6.611-10.459,1.836-19.171,1.836-19.171
					s-8.256-0.626-13.133-5.242c-4.873-4.614-2.164-9.484-2.164-9.484s-10.421,4.183-16.421-1.797
					c-5.987-5.979,0.403-14.88,0.403-14.88s-4,1.506-8.91-2.539c-4.909-4.05-3.225-9.106-3.225-9.106
					c-10.219,5.43-15.054-3.349-15.054-3.349s-4.595,11.491-14.404,7.968c-9.804-3.53-7.004-13.417-7.004-13.417
					s-6.883,4.381-13.114,1.693c-6.242-2.688-7.379-8.163-7.379-8.163s-1.395,4.351-5.032,4.789
					c-3.646,0.435-6.216-2.346-6.216-2.346c-4.706,8.802-13.828,4.464-13.828,4.464s-0.722,10.642-10.212,11.346
					c-5.136,0.386-8.006-4.573-8.006-4.573c-1.957,8.405-10.138,7.014-10.138,7.014c2.126,5.27-2.209,8.26-2.209,8.26
					s7.125,5.79,14.193,3.517c5.637-1.812,5.566-9.735,5.566-9.735s10.369,9.432,18.042-1.289c0,0,13.391,4.151,14.501-8.133
					c0,0,5.073,8.607,14.498,4.127c0,0,0.785,10.217,12.544,13.904c8.245,2.579,12.089-4.635,12.089-4.635s0.141,4.46,4.646,7.69
					c4.502,3.231,10.75-1.954,10.75-1.954s-1.491,5.931,3.108,11.41c4.95,5.894,12.024,4.249,12.024,4.249
					s-5.988,6.649-2.927,11.246c3.067,4.594,11.248,5.988,11.248,5.988s-1.396,8.181,5.865,10.8c0,0-5.38,3.275-2.904,9.29
					c2.479,6.012,5.022,6.153,5.022,6.153s-6.316,6.462-0.307,11.647c0,0-7.094,6.298-1.824,13.407
					C178.256,183.419,180.541,185.936,180.541,185.936z"/>
				<path style="fill:#074700;" d="M219.803,175.86c0,0,9.526,2.821,14.48-8.143c4.954-10.96-6.58-17.551-6.58-17.551
					s8.322,0.377,11.817-10.326c3.487-10.707-8.388-15.962-8.388-15.962s11.276-3.37,9.149-19.076
					c-1.929-14.239-15.372-19.075-15.372-19.075s6.632-7.377,3.306-16.503c-3.317-9.124-16.67-9.527-16.67-9.527
					s7.832-6.036,3.355-11.223c-4.483-5.187-8.232-3.608-8.232-3.608s2.81-21.383-23.111-28.981
					c-20.01-5.864-33.605,11.004-33.605,11.004S148.3,12.15,134.085,9.061c-14.219-3.092-20.207,11.221-20.207,11.221
					s-4.593-7.665-11.597-7.289c-7.006,0.376-7.145,5.986-7.145,5.986S80.657,8.294,68.042,16.191
					C55.43,24.085,57.004,35.498,57.004,35.498s-5.938-4.929-14.947,0.867c-9.003,5.798-6.885,12.05-6.885,12.05
					s-11.847-2.764-16.915,4.561c-5.066,7.322-1.068,13.115-1.068,13.115s-5.736,0.069-8.025,7.521
					c-2.294,7.45,4.238,9.431,4.238,9.431s-8.56,8.463,0.727,17.498c9.291,9.03,20.114,5.803,20.114,5.803
					s-5.355,5.916,2.304,13.582c7.659,7.663,16.244,0.966,16.244,0.966s-5.258-14.829-13.529-23.722c0,0,4.335-2.99,2.209-8.26
					c0,0,8.181,1.392,10.138-7.014c0,0,2.87,4.959,8.006,4.573c9.49-0.704,10.212-11.346,10.212-11.346s9.122,4.338,13.828-4.464
					c0,0,2.569,2.78,6.216,2.346c3.638-0.438,5.032-4.789,5.032-4.789s1.137,5.475,7.379,8.163
					c6.231,2.688,13.114-1.693,13.114-1.693s-2.8,9.887,7.004,13.417c9.81,3.523,14.404-7.968,14.404-7.968
					s4.835,8.778,15.054,3.349c0,0-1.685,5.057,3.225,9.106c4.91,4.045,8.91,2.539,8.91,2.539s-6.391,8.9-0.403,14.88
					c6,5.979,16.421,1.797,16.421,1.797s-2.709,4.87,2.164,9.484c4.877,4.616,13.133,5.242,13.133,5.242s-8.447,8.712-1.836,19.171
					c0,0-9.872,2.896-10.492,11.849c-0.634,8.939,11.103,11.599,11.103,11.599s-8.493,4.122-4.482,11.669
					c0,0-6.153-1.107-9.058,5.116c0,0-2.285-2.517-5.143-1.084c0,0-8.541,6.505-1.594,14.275c6.947,7.763,16.634,1.035,16.634,1.035
					s0.262,5.044,6.605,6.698c7.048,1.839,11.765-6.41,11.765-6.41s7.991,0.19,12.118-9.709
					C225.059,180.838,219.803,175.86,219.803,175.86z"/>
				<path style="fill:#508E00;" d="M188.73,175.304c-11.837,0.518-26.343-2.046-26.343-2.046c7.036-5.081,15.461-8.064,22.264-9.856
					c-1.125-1.556-1.835-3.474-1.673-5.85c0.052-0.68,0.163-1.312,0.31-1.921c-21.229,7.88-46.477,9.137-46.477,9.137
					c12.083-13.456,42.996-20.742,54.787-23.104c-2.635-8.568,3.708-15.132,3.708-15.132s-8.256-0.626-13.133-5.242
					c-1.733-1.639-2.489-3.301-2.777-4.774c-24.78,24.062-48.171,23.159-48.171,23.159c9.184-19.933,21.852-31.572,29.927-37.445
					c0.538-3.872,2.84-7.101,2.84-7.101s-4,1.506-8.91-2.539c-4.909-4.05-3.225-9.106-3.225-9.106
					c-5.007,2.664-8.728,1.911-11.21,0.451c-13.645,28.739-32.211,38.548-32.211,38.548c-2.292-12.409,2.838-29.272,7.254-40.692
					c-1.278-3.585-0.295-7.104-0.295-7.104s-3.969,2.521-8.614,2.558c-3.803,16.259-14.687,34.364-14.687,34.364
					c-5.521-12.226,0.671-30.272,4.649-39.589c-1.471-2.024-1.842-3.803-1.842-3.803s-1.395,4.351-5.032,4.789
					c-3.646,0.435-6.216-2.346-6.216-2.346c-2.219,4.146-5.409,5.364-8.169,5.505c6.367,22.229-1.191,50.888-1.191,50.888
					C63.87,112.623,59.4,96.038,57.554,86.331c-3.837-0.804-5.945-4.436-5.945-4.436c-1.957,8.405-10.138,7.014-10.138,7.014
					c2.126,5.27-2.209,8.26-2.209,8.26c8.271,8.893,13.529,23.722,13.529,23.722s5.751,15.841,3.893,34.92
					c-1.862,19.084-23.912,40.043-23.912,40.043c-2.16,3.004,5.817,15.007,22.217,26.577c16.402,11.566,24.61,11.767,27.185,9.569
					c2.567-2.194,21.173-23.02,35.098-32.577c31.733-21.775,58.127-14.571,58.127-14.571c2.858-1.433,5.143,1.084,5.143,1.084
					c2.904-6.224,9.058-5.116,9.058-5.116C188.472,178.703,188.352,176.864,188.73,175.304z"/>
				<g>
					<g>
						<g>
							<path style="fill:#062D00;" d="M70.159,48.491c0,0,0.381,1.171,0.042,2.986c-0.165,0.897-0.536,1.964-1.288,2.951
								c-0.379,0.479-0.826,0.979-1.387,1.34c-0.546,0.382-1.171,0.679-1.81,0.878c-0.356,0.075-0.576,0.18-1.048,0.217
								l-0.835,0.066c-0.282,0.022-0.548,0.044-0.836,0.04c-0.32-0.04-0.639-0.078-0.951-0.117c-0.636-0.042-1.193-0.227-1.69-0.437
								c-0.52-0.155-0.957-0.437-1.344-0.696c-0.788-0.499-1.29-1.109-1.593-1.53c-0.296-0.442-0.397-0.723-0.397-0.723
								s0.259,0.155,0.708,0.366c0.455,0.199,1.09,0.467,1.858,0.648c0.745,0.177,1.684,0.342,2.541,0.278l0.657,0.004
								c0.258-0.041,0.538-0.092,0.813-0.12l0.832-0.105c0.095,0.003,0.407-0.121,0.599-0.169c0.887-0.233,1.654-0.716,2.311-1.318
								c0.651-0.608,1.167-1.351,1.582-2.041C69.724,49.62,70.159,48.491,70.159,48.491z"/>
						</g>
					</g>
					<g>
						<g>
							<path style="fill:#062D00;" d="M38.633,79.512c0,0,0.276,0.736,0.125,1.842c-0.08,0.546-0.237,1.194-0.614,1.828
								c-0.343,0.648-0.92,1.271-1.659,1.714c-0.369,0.224-0.78,0.36-1.191,0.465c-0.404,0.15-0.826,0.067-1.213,0.095
								c-0.766-0.074-1.421-0.304-1.895-0.617c-0.506-0.246-0.811-0.631-1.038-0.854c-0.218-0.242-0.324-0.395-0.324-0.395
								s0.201-0.024,0.517-0.037c0.315-0.03,0.733,0.025,1.207-0.03c0.476-0.006,0.974-0.078,1.449-0.159
								c0.456-0.15,0.907-0.231,1.29-0.518c0.22-0.076,0.395-0.265,0.603-0.391c0.165-0.192,0.407-0.303,0.572-0.511
								c0.383-0.353,0.714-0.769,1.048-1.12C38.119,80.088,38.633,79.512,38.633,79.512z"/>
						</g>
					</g>
					<g>
						<g>
							<path style="fill:#062D00;" d="M91.829,26.283c0,0-0.024,0.766-0.551,1.697c-0.266,0.463-0.637,0.98-1.181,1.419
								c-0.518,0.471-1.233,0.82-2.016,1.023c-0.405,0.07-0.81,0.121-1.22,0.082c-0.411,0.018-0.79-0.145-1.148-0.253
								c-0.377-0.085-0.648-0.344-0.931-0.511c-0.291-0.157-0.472-0.423-0.661-0.621c-0.39-0.392-0.551-0.837-0.678-1.12
								c-0.119-0.296-0.163-0.47-0.163-0.47s0.195,0.04,0.486,0.124c0.294,0.077,0.667,0.239,1.114,0.329
								c0.22,0.041,0.431,0.138,0.663,0.154c0.235,0.012,0.455,0.098,0.683,0.084c0.452,0.012,0.892,0.01,1.339-0.118
								c0.898-0.172,1.91-0.683,2.755-1.09C91.146,26.591,91.829,26.283,91.829,26.283z"/>
						</g>
					</g>
					<g>
						<g>
							<path style="fill:#062D00;" d="M104.726,48.548c0,0,0.758,0.322,1.703,0.814c0.458,0.228,0.996,0.494,1.572,0.781
								c0.557,0.264,1.123,0.52,1.69,0.699c0.276,0.096,0.555,0.186,0.825,0.239c0.273,0.006,0.544,0.147,0.808,0.12
								c0.528,0.054,1.059,0.023,1.542-0.067c0.979-0.149,1.764-0.462,1.784-0.418c-0.041-0.046-0.192,0.837-1.174,1.643
								c-0.228,0.229-0.525,0.412-0.868,0.562c-0.331,0.188-0.714,0.312-1.129,0.37c-0.826,0.186-1.728,0.042-2.548-0.196
								c-1.626-0.582-2.807-1.741-3.426-2.732C104.858,49.373,104.726,48.548,104.726,48.548z"/>
						</g>
					</g>
					<g>
						<g>
							<path style="fill:#062D00;" d="M153.081,33.664c0,0,0.121-0.778,0.883-1.604c0.366-0.426,0.915-0.822,1.604-1.115
								c0.697-0.291,1.546-0.366,2.373-0.246c0.811,0.184,1.561,0.53,2.104,1.01c0.559,0.462,0.943,0.984,1.193,1.473
								c0.29,0.455,0.373,0.924,0.46,1.225c0.074,0.309,0.094,0.491,0.094,0.491s-0.717-0.306-1.533-0.764
								c-0.214-0.104-0.438-0.213-0.649-0.351c-0.227-0.107-0.479-0.184-0.697-0.313c-0.22-0.134-0.485-0.14-0.701-0.266
								c-0.23-0.075-0.466-0.124-0.693-0.168c-0.459-0.096-0.921-0.096-1.404-0.076c-0.478,0.06-0.972,0.132-1.417,0.249
								C153.807,33.431,153.081,33.664,153.081,33.664z"/>
						</g>
					</g>
					<g>
						<g>
							<path style="fill:#062D00;" d="M164.917,53.184c0,0-0.404,0.919-0.749,2.138c-0.165,0.606-0.316,1.305-0.269,1.971
								c-0.061,0.341,0.085,0.658,0.14,0.98c0.006,0.334,0.215,0.629,0.383,0.929c0.048,0.123,0.193,0.391,0.143,0.403l0.415,0.536
								c0.28,0.345,0.506,0.768,0.74,0.955c0.415,0.508,0.943,1.016,1.437,1.36c0.984,0.731,1.955,1.004,1.955,1.004
								s-0.207,0.14-0.633,0.249c-0.417,0.098-1.082,0.2-1.832,0.015c-0.773-0.135-1.608-0.5-2.42-1.158
								c-0.446-0.329-0.74-0.625-1.026-0.968l-0.441-0.509c-0.248-0.391-0.304-0.529-0.457-0.814
								c-0.244-0.508-0.492-1.008-0.517-1.588c-0.093-0.561-0.107-1.11,0.039-1.614c0.076-0.519,0.229-0.983,0.469-1.37
								c0.191-0.408,0.418-0.76,0.684-1.034C163.952,53.504,164.917,53.184,164.917,53.184z"/>
						</g>
					</g>
					<g>
						<g>
							<path style="fill:#062D00;" d="M192.457,46.374c0,0,0.578-0.491,1.616-0.646c1.021-0.188,2.554,0.021,3.759,0.975
								c0.303,0.222,0.538,0.517,0.792,0.786c0.256,0.263,0.391,0.611,0.57,0.899c0.286,0.622,0.443,1.233,0.445,1.763
								c0.066,0.518-0.055,0.96-0.116,1.256c-0.073,0.297-0.14,0.46-0.14,0.46s-0.131-0.135-0.322-0.362
								c-0.197-0.227-0.409-0.56-0.706-0.897c-0.271-0.353-0.602-0.71-0.912-1.072c-0.359-0.329-0.67-0.694-1.076-0.961
								c-0.347-0.337-0.795-0.55-1.201-0.83c-0.43-0.231-0.852-0.472-1.258-0.669C193.037,46.655,192.457,46.374,192.457,46.374z"/>
						</g>
					</g>
					<g>
						<g>
							<path style="fill:#062D00;" d="M213.816,127.993c0,0-0.276,1.033-0.716,2.437c-0.415,1.404-1.035,3.259-1.106,4.895
								c-0.002,0.388,0.007,0.807,0.069,1.101c0.152,0.54,0.193,0.786,0.349,1.148c0.296,0.699,0.705,1.337,1.154,1.863
								c0.903,1.038,1.78,1.694,1.78,1.694s-1.115,0.171-2.62-0.587c-0.752-0.358-1.572-1.014-2.175-1.953
								c-0.307-0.447-0.597-1.118-0.701-1.52c-0.18-0.663-0.24-1.238-0.225-1.849c0.073-1.185,0.412-2.246,0.849-3.151
								c0.432-0.907,0.949-1.673,1.445-2.279C212.901,128.569,213.816,127.993,213.816,127.993z"/>
						</g>
					</g>
					<g>
						<g>
							<path style="fill:#062D00;" d="M209.57,171.547c0,0-0.653,0.553-1.326,1.341c-0.17,0.191-0.303,0.443-0.484,0.641
								c-0.165,0.222-0.254,0.502-0.423,0.722c-0.141,0.243-0.172,0.545-0.316,0.785c-0.115,0.261-0.121,0.575-0.201,0.855
								l-0.065,0.211l-0.008,0.024v0.005c-0.004,0.035,0.019-0.269,0.008-0.138V176l-0.004,0.02v0.068l-0.01,0.143l-0.03,0.557
								c-0.046,0.437-0.004,0.605,0.015,0.804c-0.018,0.208,0.08,0.444,0.135,0.684c0.042,0.256,0.214,0.429,0.296,0.667
								c0.252,0.409,0.547,0.764,0.786,1.01c0.236,0.233,0.397,0.381,0.397,0.381s-0.2,0.053-0.577,0.059
								c-0.364-0.015-0.915-0.091-1.514-0.429c-0.264-0.2-0.648-0.369-0.87-0.716c-0.254-0.322-0.568-0.648-0.684-1.154
								c-0.159-0.483-0.326-1.02-0.28-1.328l-0.012-0.561l-0.002-0.139v-0.071l0.012-0.179l0.007-0.043l0.072-0.334
								c0.137-0.436,0.211-0.89,0.417-1.295c0.216-0.397,0.455-0.783,0.728-1.106c0.583-0.642,1.25-1.061,1.858-1.283
								C208.72,171.295,209.57,171.547,209.57,171.547z"/>
						</g>
					</g>
				</g>
			</g>
			<path style="opacity:0.4;fill:#074700;" d="M219.803,175.86c0,0,9.526,2.821,14.48-8.143c4.954-10.96-6.58-17.551-6.58-17.551
				s8.322,0.377,11.817-10.326c3.487-10.707-8.388-15.962-8.388-15.962s11.276-3.37,9.149-19.076
				c-1.929-14.239-15.372-19.075-15.372-19.075s6.632-7.377,3.306-16.503c-3.317-9.124-16.67-9.527-16.67-9.527
				s7.832-6.036,3.355-11.223c-4.483-5.187-8.232-3.608-8.232-3.608s2.81-21.383-23.111-28.981
				c-20.01-5.864-33.605,11.004-33.605,11.004S148.3,12.15,134.085,9.061c-14.219-3.092-20.207,11.221-20.207,11.221
				s-4.593-7.665-11.597-7.289c-7.006,0.376-7.145,5.986-7.145,5.986S80.657,8.294,68.042,16.191
				C55.43,24.085,57.004,35.498,57.004,35.498s-5.938-4.929-14.947,0.867c-9.003,5.798-6.885,12.05-6.885,12.05
				s-11.847-2.764-16.915,4.561c-5.066,7.322-1.068,13.115-1.068,13.115s-5.736,0.069-8.025,7.521
				c-2.294,7.45,4.238,9.431,4.238,9.431s-8.56,8.463,0.727,17.498c9.291,9.03,20.114,5.803,20.114,5.803s-5.355,5.916,2.304,13.582
				c7.659,7.663,16.244,0.966,16.244,0.966s-5.258-14.829-13.529-23.722c0,0,4.335-2.99,2.209-8.26c0,0,8.181,1.392,10.138-7.014
				c0,0,2.87,4.959,8.006,4.573c9.49-0.704,10.212-11.346,10.212-11.346s9.122,4.338,13.828-4.464c0,0,2.569,2.78,6.216,2.346
				c3.638-0.438,5.032-4.789,5.032-4.789s1.137,5.475,7.379,8.163c6.231,2.688,13.114-1.693,13.114-1.693s-2.8,9.887,7.004,13.417
				c9.81,3.523,14.404-7.968,14.404-7.968s4.835,8.778,15.054,3.349c0,0-1.685,5.057,3.225,9.106c4.91,4.045,8.91,2.539,8.91,2.539
				s-6.391,8.9-0.403,14.88c6,5.979,16.421,1.797,16.421,1.797s-2.709,4.87,2.164,9.484c4.877,4.616,13.133,5.242,13.133,5.242
				s-8.447,8.712-1.836,19.171c0,0-9.872,2.896-10.492,11.849c-0.634,8.939,11.103,11.599,11.103,11.599s-8.493,4.122-4.482,11.669
				c0,0-6.153-1.107-9.058,5.116c0,0-2.285-2.517-5.143-1.084c0,0-8.541,6.505-1.594,14.275c6.947,7.763,16.634,1.035,16.634,1.035
				s0.262,5.044,6.605,6.698c7.048,1.839,11.765-6.41,11.765-6.41s7.991,0.19,12.118-9.709
				C225.059,180.838,219.803,175.86,219.803,175.86z M222.959,153.222c0,0,9.672,5.818,5.093,13.563
				c-4.575,7.752-14.366,6.242-14.366,6.242s10.092,4.31,6.396,11.538c-3.696,7.228-10.484,3.783-10.484,3.783
				c-0.003,4.083-3.181,10.154-10.124,7.494c-6.945-2.656-8.191-7.891-5.72-12.462c2.473-4.575,6.542-4.287,6.542-4.287
				c-2.637-7.64,5.405-10.487,5.405-10.487s-8.675-5.251-6.296-12.211c2.372-6.967,9.132-7.043,9.132-7.043
				c0.77-7.732,8.985-6.787,8.985-6.787s-2.919-1.713-4.73-6.395c-1.814-4.689,2.551-9.492,2.551-9.492s-6.612,3.44-10.388-0.686
				c-2.734-2.994,0.367-7.345,0.367-7.345c-3.837-2.85-3.132-7.152-3.132-7.152s-4.369,8.781-11.825,4.409
				c-8.136-4.779-3.946-11.745-3.946-11.745s-7.548-0.965-6.961-5.954c0.508-4.261,3.785-6.039,3.785-6.039
				s-9.717-0.234-12.673-5.979c-2.629-5.086,1.124-8.665,1.124-8.665s-6.05,2.349-10.271-0.61c-4.227-2.96-2.895-7.57-2.895-7.57
				s-3.742,5.962-9.91,5.259c-6.165-0.706-7.677-4.387-7.677-4.387s-5.478,8.061-12.127,5.132c-6.648-2.925-6.055-9.704-6.055-9.704
				c-4.222-1.427-4.797-5.585-4.797-5.585s-2.837,7.248-11.036,6.089c-8.203-1.163-10.481-7.332-10.481-7.332
				s-2.855,6.14-7.971,4.75c-4.751-1.296-6.722-6.253-6.722-6.253s0.32,8.179-6.178,10.427c-7.032,2.439-10.659-3.081-10.659-3.081
				s0.893,9.447-6.077,11.303c-6.974,1.849-12.078-4.28-12.078-4.28s2.469,7.037-1.943,11.372c-4.41,4.336-9.168,1.549-9.168,1.549
				c2.837,4.54-0.468,12.434-6.21,10.101c-5.746-2.34-4.488-7.466-4.488-7.466c-1.703,4.503-8.296,6.211-10.303,1.927
				c-1.996-4.282,2.211-7.058,2.211-7.058c-4.207,1.099-9.304-4.663-5.579-10.413c3.73-5.751,8.989-4.1,8.989-4.1
				s-6.267-7.3,2.236-15.797c4.89-4.878,16.187-0.158,16.187-0.158s-4.1-9.682,5.393-14.984c9.488-5.301,16.382,2.936,16.382,2.936
				c-2.987-5.296,0.536-23.711,15.768-24.513c16.482-0.871,20.308,9.234,20.308,9.234s1.286-7.878,9.518-5.938
				c8.236,1.933,7.989,11.57,7.989,11.57s2.547-20.293,17.417-18.406c14.862,1.895,18.222,19.366,18.222,19.366
				s12.002-22.769,36.504-12.263c24.502,10.505,15.209,32.883,15.209,32.883s4.819-5.869,9.486-2.351
				c4.668,3.514,0.655,10.527-6.145,12.475c0,0,10.19-2.389,17.216,4.225c6.481,6.097,3.997,17.902-3.666,20.97
				c2.868,2.697-1.064,5.994-1.064,5.994s17.35,1.089,18.234,15.633c0.781,12.97-11.674,16.76-11.674,16.76
				c7.947-0.633,14.781,6.561,13.125,13.933c-1.655,7.369-9.167,10.154-13.559,7.502
				C227.135,150.133,222.959,153.222,222.959,153.222z"/>
			<path style="opacity:0.3;fill:#044C00;" d="M205.88,106.378c0,0-3.279,2.285-1.345,6.565c1.933,4.281,6.026,3.444,6.026,3.444
				s-1.957,3.806,0.57,6.457c2.535,2.663,6.099,0.644,6.099,0.644c-2.535,3.475,1.256,6.431,1.256,6.431s-0.728,7.005,4.746,9.681
				c6.484,3.179,13.439-3.196,9.223-9.052c-4.204-5.853-12.771-5.226-12.771-5.226s8.562-5.392,7.525-12.775
				c-0.891-6.329-7.982-8.063-7.982-8.063s2.817-6.273-1.047-8.702c-3.867-2.429-6.54,0.531-6.54,0.531s5.21-4.903,0.161-8.338
				c0,0,4.352-1.67,4.859-8.495c0.51-6.83-6.955-10.439-12.739-8.928c0,0,3.432-2.747,1.082-5.728
				c-2.346-2.986-6.349,0.197-6.349,0.197s1.576-4.104-3.332-7.201c-4.913-3.092-9.545,2.141-8.676,6.365
				c0,0-7.526-5.411-11.843-0.927c-4.317,4.491,2.025,10.637,5.748,9.482c0,0-5.564,5.138-1.496,10.855
				c4.067,5.718,9.884,0.722,9.884,0.722s-1.412,2.265,1.889,5.682c0,0-3.249,2.628-1.483,6.046
				c1.764,3.422,6.858,1.408,6.858,1.408s-3.75,4.969-0.163,8.775C199.634,110.031,205.88,106.378,205.88,106.378z"/>
			<path style="opacity:0.4;fill:#044C00;" d="M141.538,52.591c0,0,1.76,9.684,9.918,9.829c8.167,0.141,9.632-9.827,9.632-9.827
				c3.52,2.014,5.595-1.613,5.595-1.613c-2.267,3.445,0.627,9.626,5.875,9.635c5.251,0.009,6.486-5.125,6.486-5.125
				c6.566,1.783,7.277-3.866,7.277-3.866c3.135,6.245,13.097,4.785,11.827-0.024c-1.264-4.808-6.782-5.121-6.782-5.121
				c3.918-0.461,9.448-7.955,2.415-12.264c-7.019-4.31-10.892,1.946-10.892,1.946c-4.749-2.791-7.901,1.317-7.901,1.317
				c1.563-4.65-1.518-11.012-7.416-9.637c-5.888,1.377-5.053,8.844-5.053,8.844s-2.978-4.75-6.617-4.132
				c-3.634,0.623-3.952,5.261-3.952,5.261c-3.785-3.332-6.824-0.322-6.824-0.322c4.814-7.028,3.313-13.583-3.207-15.703
				c-6.191-2.021-10.168,4.255-10.168,4.255s-2.314-6.428-8.804-5.034c-6.499,1.4-8.173,12.157-8.173,12.157
				s-1.874-9.558-9.422-10.042c-7.55-0.485-9.617,8.022-4.005,12.374c0,0-5.389,4.198-1.529,9.371
				c2.854,3.817,7.249,0.859,7.249,0.859s-0.431,5.59,5.438,6.314c5.858,0.725,7.795-5.465,7.795-5.465s0.111,8.155,7.307,10.964
				C136.425,60.976,141.538,52.591,141.538,52.591z"/>
			<path style="opacity:0.3;fill:#044C00;" d="M54.817,49.791c0,0,2.043,7.153,9.401,5.974c7.363-1.174,8.245-9.321,8.245-9.321
				c6.772,3.427,12.63-3.134,9.739-7.269c-2.893-4.133-6.478-2.973-6.478-2.973c2.94-7.96-2.66-16.441-8.771-12.749
				c-9.225,5.576-4.384,18.655-4.384,18.655s-3.617-0.314-4.966,2.56c0,0-5.549-7.651-12.339-4.719
				c-6.796,2.938-6.671,12.686-3.698,15.406c0,0-10.267-6.31-16.17-1.281c-4.973,4.246-4.767,8.285-0.347,11.542
				c0,0-2.063,1.303-0.615,4.905c0,0-4.829,0.012-5.117,4.084c-0.279,4.07,6.319,5.799,9.531,2.231c0,0,0.909,5.485,5.255,6.22
				c4.343,0.731,5.619-5.841,4.314-8.917c0,0,1.663,5.827,4.678,3.692c3.016-2.139,2.743-8.505-0.999-10.644
				c0,0,7.66,4.234,12.593-1.409c4.956-5.656-2.853-12.307-2.853-12.307S54.46,52.215,54.817,49.791z"/>
		</g>
		<g>
			<path style="opacity:0.5;fill:#5A9900;" d="M64.86,213.252c-15.031-11.748-8.229-24.487-1.826-40.965
				c15.439-39.782-15.882-74.619-15.882-74.619c2.392-2.14,1.161-4.079,1.161-4.079c4.218-0.731,4.896-4.721,4.896-4.721
				c1.95,1.134,3.718,1.069,5.017,0.7c-0.257-1.141-0.484-2.233-0.672-3.237c-3.837-0.804-5.945-4.436-5.945-4.436
				c-1.957,8.405-10.138,7.014-10.138,7.014c2.126,5.27-2.209,8.26-2.209,8.26c8.271,8.893,13.529,23.722,13.529,23.722
				s5.751,15.841,3.893,34.92c-1.862,19.084-23.912,40.043-23.912,40.043c-2.16,3.004,5.817,15.007,22.217,26.577
				c16.402,11.566,24.61,11.767,27.185,9.569c1.347-1.159,7.097-7.588,14.298-14.756C88.056,222.213,75.4,221.493,64.86,213.252z"/>
			<g>
				<path style="opacity:0.5;fill:#5A9900;" d="M143.035,93.752c0,0,1.544,5.14,8.822,5.047c0,0,0.074,5.207,2.158,9.274
					c2.597-2.37,5.021-4.309,7.137-5.844c0.538-3.872,2.84-7.101,2.84-7.101s-4,1.506-8.91-2.539
					c-4.909-4.05-3.225-9.106-3.225-9.106c-5.007,2.664-8.728,1.911-11.21,0.451c-13.645,28.739-32.211,38.548-32.211,38.548
					s0.853,2.904,1.789,5.298C110.226,127.78,127.43,120.084,143.035,93.752z"/>
				<path style="opacity:0.5;fill:#5A9900;" d="M177.528,125.201c0,0,3.142,1.652,9.073,2.267c0,0-4.956,7.894-0.838,15.449
					c2.239-0.51,4.216-0.931,5.835-1.253c-2.635-8.568,3.708-15.132,3.708-15.132s-8.256-0.626-13.133-5.242
					c-1.733-1.639-2.489-3.301-2.777-4.774c-24.78,24.062-48.171,23.159-48.171,23.159s-1.851,3.246-2.439,7.145
					C128.786,146.819,155.798,147.374,177.528,125.201z"/>
				<path style="opacity:0.5;fill:#5A9900;" d="M178.77,159.74c0,0-0.093,2.309,2.637,4.585c1.114-0.336,2.203-0.646,3.245-0.924
					c-1.125-1.556-1.835-3.474-1.673-5.85c0.052-0.68,0.163-1.312,0.31-1.921c-21.229,7.88-46.477,9.137-46.477,9.137l-3.361,6.067
					C133.45,170.835,162.833,164.439,178.77,159.74z"/>
				<path style="opacity:0.5;fill:#5A9900;" d="M108.346,83.189c0,0,1.463,0.121,3.505-2.105c0,0,0.461,2.456,2.354,4.722
					c0.496-1.396,0.996-2.742,1.486-4.016c-1.278-3.585-0.295-7.104-0.295-7.104s-3.969,2.521-8.614,2.558
					c-3.803,16.259-14.687,34.364-14.687,34.364l2.445,5.121C94.54,116.729,104.879,99.979,108.346,83.189z"/>
				<path style="opacity:0.5;fill:#5A9900;" d="M82.771,99.709c0.237-15.991-1.101-21.57-1.101-21.57s5.597,1.574,10.188-1.919
					c0,0-0.377,3.223,1.239,5.682c1.179-3.785,2.503-7.199,3.646-9.883c-1.471-2.024-1.842-3.803-1.842-3.803
					s-1.395,4.351-5.032,4.789c-3.646,0.435-6.216-2.346-6.216-2.346c-2.219,4.146-5.409,5.364-8.169,5.505
					c6.367,22.229-1.191,50.888-1.191,50.888l1.766,6.481C76.06,133.533,82.441,121.438,82.771,99.709z"/>
			</g>
			<path style="opacity:0.5;fill:#5A9900;" d="M189.599,180.819c-1.127-2.116-1.247-3.955-0.868-5.516
				c-11.837,0.518-26.343-2.046-26.343-2.046l-8.011,5.71c0,0,15.361-2.317,30.516-1.531c0,0-3.772,0.8-4.504,4.286
				c0,0-3.977-2.079-8.028,2.549c2.29-0.064,3.037,0.58,3.037,0.58c2.858-1.433,5.143,1.084,5.143,1.084
				C183.445,179.712,189.599,180.819,189.599,180.819z"/>
		</g>
		<path style="opacity:0.5;fill:#5DAA02;" d="M150.239,183.781c-10.626,1.027-38.315,13.057-52.482,29.333
			c-5.857,6.729,1.175-9.979,24.665-23.187C146.621,176.332,166.691,182.2,150.239,183.781z"/>
	</g>
</g>
</svg>
