<svg width="437.199072265625px" height="122px" xmlns="http://www.w3.org/2000/svg" viewBox="31.40046386718751 14 437.199072265625 122" style="background: rgba(0, 0, 0, 0);" preserveAspectRatio="xMidYMid"><defs><filter id="editing-cake" x="-100%" y="-100%" width="300%" height="300%"><feFlood flood-color="#2d1500" result="flood-shadow"></feFlood><feFlood flood-color="#894619"></feFlood><feComposite operator="in" in2="SourceAlpha"></feComposite><feConvolveMatrix order="7,10" divisor="1" result="conv" kernelMatrix="0 0 0 1 0 0 0 0 0 1 0 1 0 0 0 0 1 0 1 0 0 0 1 0 0 0 1 0 0 1 0 0 0 1 0 0 1 0 0 0 1 0 1 0 0 0 0 0 1 1 0 0 0 0 0 1 0 1 1 0 1 1 0 0 0 0 1 0 0 0 "></feConvolveMatrix><feGaussianBlur stdDeviation="0.5"></feGaussianBlur><feOffset dy="4" result="offset"></feOffset><feComposite operator="in" in="flood-shadow" in2="offset"></feComposite><feGaussianBlur stdDeviation="4"></feGaussianBlur><feComponentTransfer><feFuncA type="linear" slope="0.7" intercept="-0.2"></feFuncA></feComponentTransfer><feOffset dy="4" result="shadow"></feOffset><feGaussianBlur in="SourceGraphic" stdDeviation="0.5"></feGaussianBlur><feOffset dy="0" result="x0"></feOffset><feGaussianBlur in="SourceGraphic" stdDeviation="1"></feGaussianBlur><feComponentTransfer><feFuncA type="linear" slope="0.8" intercept="-.01"></feFuncA></feComponentTransfer><feOffset dy="1" result="x1"></feOffset><feGaussianBlur in="SourceGraphic" stdDeviation="2"></feGaussianBlur><feComponentTransfer><feFuncA type="linear" slope="0.7" intercept="-.01"></feFuncA></feComponentTransfer><feOffset dy="2" result="x2"></feOffset><feGaussianBlur in="SourceGraphic" stdDeviation="3"></feGaussianBlur><feComponentTransfer><feFuncA type="linear" slope="0.6" intercept="-.01"></feFuncA></feComponentTransfer><feOffset dy="3" result="x3"></feOffset><feMerge><feMergeNode in="shadow"></feMergeNode><feMergeNode in="offset"></feMergeNode><feMergeNode in="x3"></feMergeNode><feMergeNode in="x2"></feMergeNode><feMergeNode in="x1"></feMergeNode><feMergeNode in="x0"></feMergeNode></feMerge></filter></defs><g filter="url(#editing-cake)"><g transform="translate(98.89582395553589, 104.76000213623047)"><path d="M20.22-22.46L20.22-22.46L20.22-22.46Q21.12-24.83 21.12-26.88L21.12-26.88L21.12-26.88Q21.12-30.66 18.05-30.66L18.05-30.66L18.05-30.66Q16.45-30.66 15.14-29.22L15.14-29.22L15.14-29.22Q13.82-27.78 13.82-25.98L13.82-25.98L13.82-25.98Q13.82-24.70 14.85-23.68L14.85-23.68L14.85-23.68Q16.32-22.27 20.10-19.97L20.10-19.97L20.10-19.97Q23.87-17.66 25.31-15.78L25.31-15.78L25.31-15.78Q26.75-13.89 26.75-11.30L26.75-11.30L26.75-11.30Q26.75-8.70 25.50-6.34L25.50-6.34L25.50-6.34Q24.26-3.97 22.02-2.30L22.02-2.30L22.02-2.30Q17.22 1.28 9.54 1.28L9.54 1.28L9.54 1.28Q5.38 1.28 2.18-0.90L2.18-0.90L2.18-0.90Q-1.02-3.01-1.02-5.50L-1.02-5.50L-1.02-5.50Q-1.02-8 0.80-9.47L0.80-9.47L0.80-9.47Q2.62-10.94 5.31-10.94L5.31-10.94L5.31-10.94Q8-10.94 9.66-9.92L9.66-9.92L9.66-9.92Q8.83-7.81 8.83-6.40L8.83-6.40L8.83-6.40Q8.83-2.18 12.42-2.18L12.42-2.18L12.42-2.18Q13.95-2.18 14.98-3.14L14.98-3.14L14.98-3.14Q16-4.10 16-5.76L16-5.76L16-5.76Q16-9.02 10.50-12.48L10.50-12.48L10.50-12.48Q6.02-15.42 4.99-16.58L4.99-16.58L4.99-16.58Q3.26-18.62 3.26-21.18L3.26-21.18L3.26-21.18Q3.26-23.74 4.48-26.18L4.48-26.18L4.48-26.18Q5.70-28.61 7.94-30.34L7.94-30.34L7.94-30.34Q12.61-33.92 20.74-33.92L20.74-33.92L20.74-33.92Q24.90-33.92 27.36-32.26L27.36-32.26L27.36-32.26Q29.82-30.59 29.82-27.78L29.82-27.78L29.82-27.78Q29.82-24.96 28.13-23.36L28.13-23.36L28.13-23.36Q26.43-21.76 23.36-21.76L23.36-21.76L23.36-21.76Q21.25-21.76 20.22-22.46ZM62.02-4.38L62.02-4.38L62.02-4.38Q59.33-1.66 55.65-0.19L55.65-0.19L55.65-0.19Q51.97 1.28 48.32 1.28L48.32 1.28L48.32 1.28Q44.67 1.28 43.39 0.64L43.39 0.64L41.41 11.52L28.42 12.80L37.25-32.64L47.68-33.73L46.85-29.31L46.85-29.31Q49.54-33.86 55.10-33.86L55.10-33.86L55.10-33.86Q61.38-33.86 64.70-29.82L64.70-29.82L64.70-29.82Q67.65-26.18 67.65-20.61L67.65-20.61L67.65-20.61Q67.65-15.04 66.18-11.07L66.18-11.07L66.18-11.07Q64.70-7.10 62.02-4.38ZM47.55-22.34L44.16-3.58L44.16-3.58Q45.50-2.43 47.17-2.43L47.17-2.43L47.17-2.43Q48.83-2.43 49.79-3.07L49.79-3.07L49.79-3.07Q50.75-3.71 51.46-4.99L51.46-4.99L51.46-4.99Q53.38-8.45 54.91-18.94L54.91-18.94L54.91-18.94Q55.36-22.02 55.36-25.02L55.36-25.02L55.36-25.02Q55.36-28.03 54.69-28.99L54.69-28.99L54.69-28.99Q54.02-29.95 52.74-29.95L52.74-29.95L52.74-29.95Q48.83-29.95 47.55-22.34L47.55-22.34ZM86.85-3.52L86.85-3.52L86.85-3.52Q84.86 1.28 78.53 1.28L78.53 1.28L78.53 1.28Q75.26 1.28 73.22-0.96L73.22-0.96L73.22-0.96Q71.49-2.94 71.49-4.93L71.49-4.93L71.49-4.93Q71.49-10.11 73.86-20.22L73.86-20.22L76.22-32.64L89.22-33.92L85.31-13.70L85.31-13.70Q84.22-8.96 84.22-7.30L84.22-7.30L84.22-7.30Q84.22-3.65 86.85-3.52ZM77.38-41.54L77.38-41.54L77.38-41.54Q77.38-44.03 79.46-45.38L79.46-45.38L79.46-45.38Q81.54-46.72 84.54-46.72L84.54-46.72L84.54-46.72Q87.55-46.72 89.38-45.38L89.38-45.38L89.38-45.38Q91.20-44.03 91.20-41.54L91.20-41.54L91.20-41.54Q91.20-39.04 89.18-37.76L89.18-37.76L89.18-37.76Q87.17-36.48 84.16-36.48L84.16-36.48L84.16-36.48Q81.15-36.48 79.26-37.76L79.26-37.76L79.26-37.76Q77.38-39.04 77.38-41.54ZM123.71-26.62L123.71-26.62L123.71-26.62Q123.71-23.94 121.47-22.27L121.47-22.27L121.47-22.27Q119.23-20.61 115.58-20.61L115.58-20.61L115.58-20.61Q114.05-20.61 113.15-21.06L113.15-21.06L113.15-21.06Q113.86-22.72 114.08-24.80L114.08-24.80L114.08-24.80Q114.30-26.88 114.30-27.46L114.30-27.46L114.30-27.46Q114.30-30.14 112.45-30.14L112.45-30.14L112.45-30.14Q111.17-30.14 109.73-28.54L109.73-28.54L109.73-28.54Q108.29-26.94 107.07-24.45L107.07-24.45L107.07-24.45Q104.38-18.69 104.38-12.86L104.38-12.86L104.38-12.86Q104.38-9.66 105.60-8.22L105.60-8.22L105.60-8.22Q106.82-6.78 109.50-6.78L109.50-6.78L109.50-6.78Q113.22-6.78 116.16-9.86L116.16-9.86L116.16-9.86Q116.99-10.82 117.44-11.90L117.44-11.90L117.44-11.90Q119.87-10.62 119.87-7.10L119.87-7.10L119.87-7.10Q119.87-3.52 115.90-1.15L115.90-1.15L115.90-1.15Q111.81 1.28 105.28 1.28L105.28 1.28L105.28 1.28Q92.29 1.28 92.29-12.48L92.29-12.48L92.29-12.48Q92.29-22.53 97.98-28.29L97.98-28.29L97.98-28.29Q103.49-33.92 113.60-33.92L113.60-33.92L113.60-33.92Q123.71-33.92 123.71-26.62ZM151.36-10.82L151.36-10.82L151.36-10.82Q152.96-9.73 152.96-7.33L152.96-7.33L152.96-7.33Q152.96-4.93 151.74-3.39L151.74-3.39L151.74-3.39Q150.53-1.86 148.54-0.83L148.54-0.83L148.54-0.83Q144.45 1.28 140.03 1.28L140.03 1.28L140.03 1.28Q135.62 1.28 133.02 0.32L133.02 0.32L133.02 0.32Q130.43-0.64 128.70-2.43L128.70-2.43L128.70-2.43Q125.31-5.82 125.31-12.03L125.31-12.03L125.31-12.03Q125.31-21.70 130.56-27.58L130.56-27.58L130.56-27.58Q136.19-33.92 145.98-33.92L145.98-33.92L145.98-33.92Q152.06-33.92 155.07-31.36L155.07-31.36L155.07-31.36Q157.31-29.44 157.31-26.30L157.31-26.30L157.31-26.30Q157.31-15.04 137.86-15.04L137.86-15.04L137.86-15.04Q137.60-13.38 137.60-11.97L137.60-11.97L137.60-11.97Q137.60-9.02 138.91-7.90L138.91-7.90L138.91-7.90Q140.22-6.78 142.66-6.78L142.66-6.78L142.66-6.78Q145.09-6.78 147.68-7.90L147.68-7.90L147.68-7.90Q150.27-9.02 151.36-10.82ZM138.30-17.79L138.30-17.79L138.30-17.79Q142.85-17.79 145.47-20.61L145.47-20.61L145.47-20.61Q148.10-23.30 148.10-27.58L148.10-27.58L148.10-27.58Q148.10-29.06 147.55-29.86L147.55-29.86L147.55-29.86Q147.01-30.66 145.92-30.66L145.92-30.66L145.92-30.66Q144.83-30.66 143.90-30.24L143.90-30.24L143.90-30.24Q142.98-29.82 142.02-28.42L142.02-28.42L142.02-28.42Q139.65-25.22 138.30-17.79ZM191.68-7.10L191.68-7.10L191.68-7.10Q191.68-4.29 194.56-3.46L194.56-3.46L194.56-3.46Q193.86-1.09 191.10 0.19L191.10 0.19L191.10 0.19Q188.80 1.28 186.27 1.28L186.27 1.28L186.27 1.28Q183.74 1.28 182.43 0.61L182.43 0.61L182.43 0.61Q181.12-0.06 180.42-1.15L180.42-1.15L180.42-1.15Q179.26-2.82 179.26-5.95L179.26-5.95L179.26-5.95Q179.26-7.81 180.29-12.93L180.29-12.93L181.18-17.79L181.18-17.79Q182.27-23.36 182.27-25.41L182.27-25.41L182.27-25.41Q182.27-28.99 180.29-28.99L180.29-28.99L180.29-28.99Q177.79-28.99 176.19-25.34L176.19-25.34L176.19-25.34Q175.55-23.94 175.10-21.82L175.10-21.82L170.75 0L157.89 1.28L166.91-44.80L179.78-46.08L179.26-43.52L179.26-43.52Q177.47-33.66 175.94-30.34L175.94-30.34L175.94-30.34Q179.52-33.92 186.11-33.92L186.11-33.92L186.11-33.92Q193.09-33.92 194.37-29.31L194.37-29.31L194.37-29.31Q194.82-27.84 194.82-26.56L194.82-26.56L194.82-26.56Q194.82-25.28 194.72-24.29L194.72-24.29L194.72-24.29Q194.62-23.30 194.30-21.50L194.30-21.50L193.47-16.90L192-9.66L192-9.66Q191.68-8.19 191.68-7.10ZM220.29-2.69L220.29-2.69L220.29-2.69Q217.22 1.28 209.60 1.28L209.60 1.28L209.60 1.28Q205.63 1.28 202.75-1.12L202.75-1.12L202.75-1.12Q199.87-3.52 199.87-6.98L199.87-6.98L199.87-6.98Q199.87-8.90 200.06-9.86L200.06-9.86L204.35-32.64L217.34-33.92L212.67-9.22L212.67-9.22Q212.42-7.81 212.42-6.98L212.42-6.98L212.42-6.98Q212.42-3.26 214.66-3.26L214.66-3.26L214.66-3.26Q217.15-3.26 218.94-6.66L218.94-6.66L218.94-6.66Q219.52-7.74 219.78-9.15L219.78-9.15L224.32-32.64L236.93-33.92L232.19-8.96L232.19-8.96Q232-8 232-6.98L232-6.98L232-6.98Q232-5.95 232.58-4.83L232.58-4.83L232.58-4.83Q233.15-3.71 235.01-3.46L235.01-3.46L235.01-3.46Q234.62-1.92 233.28-0.90L233.28-0.90L233.28-0.90Q230.46 1.28 227.42 1.28L227.42 1.28L227.42 1.28Q224.38 1.28 222.59 0.19L222.59 0.19L222.59 0.19Q220.80-0.90 220.29-2.69ZM267.46 1.28L267.46 1.28L267.46 1.28Q259.71 1.28 259.71-4.74L259.71-4.74L259.71-4.74Q259.78-6.40 260.29-9.22L260.29-9.22L261.44-15.10L261.44-15.10Q263.17-23.42 263.17-25.28L263.17-25.28L263.17-25.28Q263.17-28.99 260.99-28.99L260.99-28.99L260.99-28.99Q257.34-28.99 255.42-19.46L255.42-19.46L251.65 0L238.78 1.28L245.44-32.70L255.94-33.92L254.91-27.65L254.91-27.65Q257.92-33.92 267.14-33.92L267.14-33.92L267.14-33.92Q271.62-33.92 273.50-32.03L273.50-32.03L273.50-32.03Q275.39-30.14 275.39-25.92L275.39-25.92L275.39-25.92Q275.39-21.95 273.34-12.67L273.34-12.67L273.34-12.67Q272.38-8.51 272.38-6.94L272.38-6.94L272.38-6.94Q272.38-5.38 273.25-4.48L273.25-4.48L273.25-4.48Q274.11-3.58 275.39-3.46L275.39-3.46L275.39-3.46Q274.75-1.28 272.54 0L272.54 0L272.54 0Q270.34 1.28 267.46 1.28ZM281.54-6.40L281.54-6.40L281.54-6.40Q281.54-8.13 282.43-12.48L282.43-12.48L285.82-29.76L282.05-29.76L282.30-31.68L282.30-31.68Q289.98-33.98 297.41-39.62L297.41-39.62L300.48-39.62L298.94-32.64L303.94-32.64L303.36-29.76L298.43-29.76L295.17-12.48L295.17-12.48Q294.34-8.51 294.34-7.17L294.34-7.17L294.34-7.17Q294.34-4.10 297.02-3.46L297.02-3.46L297.02-3.46Q296.38-1.28 294.08 0L294.08 0L294.08 0Q291.78 1.28 288.51 1.28L288.51 1.28L288.51 1.28Q285.25 1.28 283.39-0.77L283.39-0.77L283.39-0.77Q281.54-2.82 281.54-6.40Z" fill="#ffd800"></path></g></g><style>text {
  font-size: 64px;
  font-family: Arial Black;
  dominant-baseline: central;
  text-anchor: middle;
}</style></svg>